<svg preserveAspectRatio="none" width="100%" height="100%" overflow="visible" style="display: block;" viewBox="0 0 40 40" fill="none" xmlns="http://www.w3.org/2000/svg">
<g id="Bold / Electronic, Devices / Laptop Minimalistic">
<g id="Vector">
<path fill-rule="evenodd" clip-rule="evenodd" d="M1.66667 33.7333C1.66667 33.0338 2.23933 32.4667 2.94574 32.4667H37.0543C37.7607 32.4667 38.3333 33.0338 38.3333 33.7333C38.3333 34.4329 37.7607 35 37.0543 35H2.94574C2.23933 35 1.66667 34.4329 1.66667 33.7333Z" fill="white"/>
<path fill-rule="evenodd" clip-rule="evenodd" d="M6.14969 6.48399C4.65116 7.96798 4.65116 10.3564 4.65116 15.1333V23.5778C4.65116 26.7624 4.65116 28.3547 5.65018 29.344C6.64919 30.3333 8.25708 30.3333 11.4729 30.3333H28.5271C31.7429 30.3333 33.3508 30.3333 34.3498 29.344C35.3488 28.3547 35.3488 26.7624 35.3488 23.5778V15.1333C35.3488 10.3564 35.3488 7.96798 33.8503 6.48399C32.3518 5 29.94 5 25.1163 5H14.8837C10.06 5 7.64821 5 6.14969 6.48399ZM13.6047 25.2667C13.6047 24.5671 14.1773 24 14.8837 24H25.1163C25.8227 24 26.3953 24.5671 26.3953 25.2667C26.3953 25.9662 25.8227 26.5333 25.1163 26.5333H14.8837C14.1773 26.5333 13.6047 25.9662 13.6047 25.2667Z" fill="var(--fill-0, white)"/>
</g>
</g>
</svg>
