<svg preserveAspectRatio="none" width="100%" height="100%" overflow="visible" style="display: block;" viewBox="0 0 33.3333 26.6667" fill="none" xmlns="http://www.w3.org/2000/svg">
<path id="Subtract" fill-rule="evenodd" clip-rule="evenodd" d="M0 13.3333C0 8.66623 0 6.33268 0.908279 4.55008C1.70722 2.98206 2.98206 1.70722 4.55008 0.908279C6.33268 0 8.66623 0 13.3333 0H20C24.6671 0 27.0007 0 28.7833 0.908279C30.3513 1.70722 31.6261 2.98206 32.4251 4.55008C33.3333 6.33268 33.3333 8.66623 33.3333 13.3333C33.3333 18.0004 33.3333 20.334 32.4251 22.1166C31.6261 23.6846 30.3513 24.9594 28.7833 25.7584C27.0007 26.6667 24.6671 26.6667 20 26.6667H13.3333C8.66623 26.6667 6.33268 26.6667 4.55008 25.7584C2.98206 24.9594 1.70722 23.6846 0.908279 22.1166C0 20.334 0 18.0004 0 13.3333ZM17.5506 19.2172C17.3161 19.4516 16.9982 19.5833 16.6667 19.5833C16.3351 19.5833 16.0172 19.4516 15.7828 19.2172L11.6161 15.0505C11.128 14.5624 11.128 13.7709 11.6161 13.2828C12.1043 12.7946 12.8957 12.7946 13.3839 13.2828L15.4167 15.3156V8.33333C15.4167 7.64298 15.9763 7.08333 16.6667 7.08333C17.357 7.08333 17.9167 7.64298 17.9167 8.33333V15.3156L19.9494 13.2828C20.4376 12.7946 21.2291 12.7946 21.7172 13.2828C22.2054 13.7709 22.2054 14.5624 21.7172 15.0505L17.5506 19.2172Z" fill="var(--fill-0, white)"/>
</svg>
