<svg preserveAspectRatio="none" width="100%" height="100%" overflow="visible" style="display: block;" viewBox="0 0 33.3333 33.3333" fill="none" xmlns="http://www.w3.org/2000/svg">
<path id="Vector" fill-rule="evenodd" clip-rule="evenodd" d="M33.3333 16.6667C33.3333 25.8714 25.8714 33.3333 16.6667 33.3333C14.0005 33.3333 11.4806 32.7073 9.24588 31.5942C8.65201 31.2984 7.97322 31.2 7.33231 31.3715L3.62225 32.3641C2.01169 32.7951 0.538257 31.3216 0.969184 29.7111L1.96186 26.001C2.13335 25.3601 2.0349 24.6813 1.7391 24.0875C0.626027 21.8527 0 19.3328 0 16.6667C0 7.46192 7.46192 0 16.6667 0C25.8714 0 33.3333 7.46192 33.3333 16.6667ZM22.5506 12.4494C23.0387 12.9376 23.0387 13.7291 22.5506 14.2172L15.8839 20.8839C15.4028 21.365 14.6252 21.3729 14.1343 20.9017L10.801 17.7017C10.303 17.2236 10.2868 16.4323 10.7649 15.9343C11.243 15.4363 12.0343 15.4202 12.5323 15.8983L14.9821 18.2501L20.7828 12.4494C21.2709 11.9613 22.0624 11.9613 22.5506 12.4494Z" fill="var(--fill-0, white)"/>
</svg>
