<svg preserveAspectRatio="none" width="100%" height="100%" overflow="visible" style="display: block;" viewBox="0 0 32.7841 7.75997" fill="none" xmlns="http://www.w3.org/2000/svg">
<path id="Vector" d="M30.618 2.44078C28.1772 0 24.2488 0 16.3921 0C8.53532 0 4.60695 0 2.16617 2.44078C0.903692 3.70326 0.294224 5.36373 0 7.75997C0.884439 6.77553 1.94716 5.95547 3.1405 5.34743C4.44297 4.68379 5.83763 4.41467 7.38183 4.2885C8.87371 4.16661 10.7094 4.16664 12.954 4.16667H19.8301C22.0747 4.16664 23.9104 4.16661 25.4023 4.2885C26.9465 4.41467 28.3412 4.68379 29.6436 5.34743C30.837 5.95547 31.8997 6.77553 32.7841 7.75997C32.4899 5.36373 31.8804 3.70326 30.618 2.44078Z" fill="var(--fill-0, white)"/>
</svg>
