<svg preserveAspectRatio="none" width="100%" height="100%" overflow="visible" style="display: block;" viewBox="0 0 40 40" fill="none" xmlns="http://www.w3.org/2000/svg">
<g id="Frame">
<path id="Vector" d="M26.7828 16.5869C28.9978 16.5869 30.8861 16.5869 32.3928 16.7569C32.6484 16.7847 32.9028 16.8202 33.1561 16.8635C34.0428 17.0135 34.9061 17.2552 35.7061 17.6769V16.2602C35.7061 14.7435 35.7061 13.4885 35.5645 12.4869C35.4145 11.4285 35.0878 10.4919 34.3045 9.72021C34.1771 9.59421 34.043 9.47515 33.9028 9.36354C33.0495 8.68354 32.0261 8.40521 30.8695 8.27688C29.7528 8.15354 28.3495 8.15354 26.6278 8.15354H26.0395C24.4028 8.15354 23.8145 8.14354 23.2845 8.00854C22.976 7.93152 22.6765 7.82202 22.3911 7.68188C21.9161 7.44854 21.5045 7.09688 20.3445 6.06854L19.5545 5.36854C19.298 5.13282 19.031 4.90871 18.7545 4.69688C17.6881 3.92528 16.4299 3.46224 15.1178 3.35854C14.7527 3.33517 14.3869 3.32683 14.0211 3.33354H13.8278C12.7595 3.33354 12.0545 3.33354 11.4428 3.43521C8.76781 3.88188 6.60447 5.75188 6.07781 8.22688C5.95781 8.78854 5.95947 9.43354 5.95947 10.3652V17.6769C6.75947 17.2552 7.62281 17.0119 8.50947 16.8635C8.7617 16.8202 9.01614 16.7847 9.27281 16.7569C10.7795 16.5869 12.6678 16.5869 14.8845 16.5869H26.7828Z" fill="var(--fill-0, white)"/>
<path id="Vector_2" fill-rule="evenodd" clip-rule="evenodd" d="M5.59624 21.2995C4.57958 22.8678 4.99958 25.0495 5.83791 29.4128C6.44291 32.5545 6.74458 34.1245 7.79124 35.1661C8.06458 35.4384 8.3668 35.6767 8.69791 35.8811C9.96958 36.6678 11.6579 36.6678 15.0362 36.6678H26.6296C30.0079 36.6678 31.6962 36.6678 32.9679 35.8811C33.299 35.6767 33.6012 35.4384 33.8746 35.1661C34.9212 34.1245 35.2246 32.5545 35.8279 29.4128C36.6662 25.0495 37.0862 22.8678 36.0696 21.2995C35.8064 20.8967 35.4864 20.5341 35.1196 20.2228C33.6696 18.9978 31.3212 18.9978 26.6296 18.9978H15.0362C10.3446 18.9978 7.99791 18.9978 6.54624 20.2228C6.17943 20.5341 5.85946 20.8967 5.59624 21.2995ZM16.1579 28.6361C16.1579 27.9695 16.7296 27.4311 17.4329 27.4311H24.2329C24.9362 27.4311 25.5079 27.9711 25.5079 28.6361C25.5079 29.3011 24.9362 29.8411 24.2329 29.8411H17.4329C16.7296 29.8411 16.1579 29.3011 16.1579 28.6361Z" fill="var(--fill-0, white)"/>
</g>
</svg>
