<svg preserveAspectRatio="none" width="100%" height="100%" overflow="visible" style="display: block;" viewBox="0 0 32.0826 36.6663" fill="none" xmlns="http://www.w3.org/2000/svg">
<g id="Group 131">
<path id="Vector" d="M12.4926 14.4374V13.0063C12.0063 12.9392 11.5126 12.8978 11.009 12.8978C4.93893 12.8978 0 17.8855 0 24.0164C0 27.7781 1.86064 31.1066 4.70032 33.1189C2.86791 31.1323 1.74406 28.4716 1.74406 25.5487C1.74406 19.506 6.54274 14.5781 12.4935 14.4374H12.4926Z" fill="var(--fill-0, #25F4EE)"/>
<path id="Vector_2" d="M12.7522 30.627C15.4607 30.627 17.6701 28.4509 17.7703 25.7405L17.7803 1.53319H22.1592C22.0681 1.03561 22.018 0.524246 22.018 0H16.0372L16.0272 24.2073C15.927 26.9177 13.7175 29.0938 11.009 29.0938C10.1675 29.0938 9.37424 28.8813 8.67661 28.5107C9.59008 29.79 11.0746 30.627 12.7522 30.627ZM30.3394 9.74913V8.40357C28.6691 8.40357 27.1127 7.90231 25.8076 7.04237C26.9697 8.38977 28.548 9.36192 30.3394 9.74913Z" fill="var(--fill-0, #25F4EE)"/>
<path id="Vector_3" d="M25.8085 7.0422C24.5353 5.56604 23.7621 3.6392 23.7621 1.5321H22.1601C22.5818 3.83327 23.9342 5.80793 25.8085 7.0422ZM11.009 18.9389C8.23672 18.9389 5.98082 21.2171 5.98082 24.0167C5.98082 25.9665 7.07644 27.6607 8.67661 28.5105C8.08008 27.6754 7.72489 26.6545 7.72489 25.549C7.72489 22.7493 9.98079 20.4712 12.7531 20.4712C13.2704 20.4712 13.7667 20.5576 14.2367 20.7057V14.5389C13.7503 14.4718 13.2567 14.4304 12.7531 14.4304C12.6656 14.4304 12.58 14.435 12.4935 14.4368V19.1725C12.0236 19.0244 11.5272 18.938 11.0099 18.938L11.009 18.9389Z" fill="var(--fill-0, #FE2C55)"/>
<path id="Vector_4" d="M30.3394 9.74854V14.4428C27.2383 14.4428 24.3641 13.4412 22.018 11.7407V24.0163C22.018 30.1472 17.0791 35.134 11.009 35.134C8.66293 35.134 6.48809 34.3872 4.6994 33.1189C6.71031 35.2995 9.57549 36.6663 12.7521 36.6663C18.8231 36.6663 23.7611 31.6786 23.7611 25.5486V13.2739C26.1072 14.9744 28.9815 15.976 32.0826 15.976V9.93524C31.4842 9.93524 30.9013 9.86994 30.3394 9.74854Z" fill="var(--fill-0, #FE2C55)"/>
<path id="Vector_5" d="M22.018 24.0167V11.7411C24.3641 13.4417 27.2383 14.4433 30.3394 14.4433V9.74896C28.548 9.36176 26.9697 8.39052 25.8076 7.0422C23.9333 5.80792 22.5808 3.83419 22.1592 1.5321H17.7803L17.7703 25.7394C17.6701 28.4498 15.4607 30.6259 12.7521 30.6259C11.0746 30.6259 9.59006 29.7889 8.67659 28.5096C7.07643 27.6588 5.98081 25.9647 5.98081 24.0158C5.98081 21.2161 8.23671 18.938 11.009 18.938C11.5263 18.938 12.0226 19.0244 12.4926 19.1725V14.4368C6.54182 14.5775 1.74314 19.5054 1.74314 25.5481C1.74314 28.471 2.86699 31.1317 4.6994 33.1184C6.48718 34.3857 8.66293 35.1335 11.009 35.1335C17.0791 35.1335 22.018 30.1458 22.018 24.0158V24.0167Z" fill="var(--fill-0, black)"/>
</g>
</svg>
