<svg width="100%" height="100%" overflow="visible" style="display: block;" viewBox="0 0 28.8525 20.1687" fill="none" xmlns="http://www.w3.org/2000/svg">
<path id="Vector" d="M28.8518 9.99619C28.8654 7.67434 28.6674 5.35608 28.2604 3.07015C28.0804 2.46682 27.7455 1.92113 27.2892 1.48733C26.8329 1.05353 26.271 0.746754 25.6593 0.597498C21.9202 0.159542 18.1568 -0.0380222 14.3924 0.00602297C10.6286 -0.0372557 6.86626 0.164712 3.12843 0.611925C2.52163 0.779132 1.96864 1.10102 1.52357 1.54608C1.07851 1.99115 0.756619 2.54414 0.589412 3.15094C0.182592 5.43638 -0.0144247 7.75422 0.00082142 10.0755C-0.0136048 12.3982 0.184035 14.715 0.590854 17.0001C0.760991 17.6136 1.08683 18.1727 1.53676 18.6231C1.98669 19.0736 2.54542 19.4001 3.15872 19.5709C6.898 20.008 10.6604 20.2056 14.4256 20.1609C18.1791 20.2117 21.9319 20.0141 25.6593 19.5694C26.2655 19.4023 26.818 19.0807 27.2627 18.6362C27.7075 18.1917 28.0294 17.6394 28.1969 17.0333C28.6398 14.7136 28.8605 12.3563 28.8518 9.99619ZM18.1606 10.8358L12.3829 14.112C12.2665 14.1759 12.1355 14.2083 12.0028 14.2062C11.8701 14.2041 11.7402 14.1675 11.6259 14.0999C11.5117 14.0324 11.4169 13.9363 11.3511 13.821C11.2853 13.7058 11.2506 13.5753 11.2504 13.4426V6.64497C11.2487 6.51178 11.2825 6.38054 11.3483 6.26473C11.4142 6.14893 11.5096 6.05274 11.6249 5.98605C11.7402 5.91936 11.8712 5.88458 12.0044 5.88528C12.1376 5.88598 12.2683 5.92213 12.3829 5.99002L18.351 9.42058C18.466 9.48845 18.5609 9.5858 18.6257 9.70258C18.6905 9.81936 18.723 9.95132 18.7197 10.0849C18.7165 10.2184 18.6777 10.3486 18.6073 10.4621C18.5369 10.5756 18.4374 10.6683 18.3192 10.7305L18.1606 10.8358Z" fill="var(--fill-0, #FF0000)"/>
</svg>
