<svg width="100%" height="100%" overflow="visible" style="display: block;" viewBox="0 0 34.563 34.5628" fill="none" xmlns="http://www.w3.org/2000/svg">
<g id="Vector">
<path d="M17.2871 0C10.0723 0 7.96223 0.00744591 7.55205 0.0414101C6.07147 0.164595 5.15013 0.397773 4.14649 0.897568C3.37289 1.28189 2.76284 1.72721 2.16076 2.3515C1.06424 3.49008 0.399717 4.89084 0.159094 6.55574C0.0421794 7.36408 0.00808463 7.52894 0.00116117 11.6577C-0.00145146 13.034 0.00116117 14.8451 0.00116117 17.2747C0.00116117 24.4855 0.00926084 26.5941 0.0437475 27.0036C0.163406 28.4447 0.389267 29.3514 0.86777 30.3432C1.78219 32.2416 3.52873 33.6668 5.58618 34.1986C6.29851 34.382 7.0853 34.4832 8.09534 34.531C8.52342 34.5495 12.8855 34.5628 17.2501 34.5628C21.6149 34.5628 25.9797 34.5576 26.3969 34.5363C27.5666 34.4812 28.2458 34.39 28.9966 34.1959C31.0674 33.6616 32.7819 32.2576 33.715 30.3325C34.1841 29.3646 34.422 28.4234 34.5296 27.0575C34.5532 26.7597 34.563 22.0118 34.563 17.2701C34.563 12.5277 34.5522 7.7885 34.529 7.49066C34.4199 6.10271 34.182 5.16935 33.6977 4.18308C33.3003 3.37552 32.859 2.77239 32.2184 2.15581C31.0751 1.0636 29.677 0.398818 28.0107 0.158456C27.2034 0.0416716 27.0428 0.00718473 22.9118 0H17.2871Z" fill="url(#paint0_radial_39850_11655)"/>
<path d="M17.2871 0C10.0723 0 7.96223 0.00744591 7.55205 0.0414101C6.07147 0.164595 5.15013 0.397773 4.14649 0.897568C3.37289 1.28189 2.76284 1.72721 2.16076 2.3515C1.06424 3.49008 0.399717 4.89084 0.159094 6.55574C0.0421794 7.36408 0.00808463 7.52894 0.00116117 11.6577C-0.00145146 13.034 0.00116117 14.8451 0.00116117 17.2747C0.00116117 24.4855 0.00926084 26.5941 0.0437475 27.0036C0.163406 28.4447 0.389267 29.3514 0.86777 30.3432C1.78219 32.2416 3.52873 33.6668 5.58618 34.1986C6.29851 34.382 7.0853 34.4832 8.09534 34.531C8.52342 34.5495 12.8855 34.5628 17.2501 34.5628C21.6149 34.5628 25.9797 34.5576 26.3969 34.5363C27.5666 34.4812 28.2458 34.39 28.9966 34.1959C31.0674 33.6616 32.7819 32.2576 33.715 30.3325C34.1841 29.3646 34.422 28.4234 34.5296 27.0575C34.5532 26.7597 34.563 22.0118 34.563 17.2701C34.563 12.5277 34.5522 7.7885 34.529 7.49066C34.4199 6.10271 34.182 5.16935 33.6977 4.18308C33.3003 3.37552 32.859 2.77239 32.2184 2.15581C31.0751 1.0636 29.677 0.398818 28.0107 0.158456C27.2034 0.0416716 27.0428 0.00718473 22.9118 0H17.2871Z" fill="url(#paint1_radial_39850_11655)"/>
<path d="M17.2871 0C10.0723 0 7.96223 0.00744591 7.55205 0.0414101C6.07147 0.164595 5.15013 0.397773 4.14649 0.897568C3.37289 1.28189 2.76284 1.72721 2.16076 2.3515C1.06424 3.49008 0.399717 4.89084 0.159094 6.55574C0.0421794 7.36408 0.00808463 7.52894 0.00116117 11.6577C-0.00145146 13.034 0.00116117 14.8451 0.00116117 17.2747C0.00116117 24.4855 0.00926084 26.5941 0.0437475 27.0036C0.163406 28.4447 0.389267 29.3514 0.86777 30.3432C1.78219 32.2416 3.52873 33.6668 5.58618 34.1986C6.29851 34.382 7.0853 34.4832 8.09534 34.531C8.52342 34.5495 12.8855 34.5628 17.2501 34.5628C21.6149 34.5628 25.9797 34.5576 26.3969 34.5363C27.5666 34.4812 28.2458 34.39 28.9966 34.1959C31.0674 33.6616 32.7819 32.2576 33.715 30.3325C34.1841 29.3646 34.422 28.4234 34.5296 27.0575C34.5532 26.7597 34.563 22.0118 34.563 17.2701C34.563 12.5277 34.5522 7.7885 34.529 7.49066C34.4199 6.10271 34.182 5.16935 33.6977 4.18308C33.3003 3.37552 32.859 2.77239 32.2184 2.15581C31.0751 1.0636 29.677 0.398818 28.0107 0.158456C27.2034 0.0416716 27.0428 0.00718473 22.9118 0H17.2871Z" fill="url(#paint2_radial_39850_11655)"/>
<path d="M17.2871 0C10.0723 0 7.96223 0.00744591 7.55205 0.0414101C6.07147 0.164595 5.15013 0.397773 4.14649 0.897568C3.37289 1.28189 2.76284 1.72721 2.16076 2.3515C1.06424 3.49008 0.399717 4.89084 0.159094 6.55574C0.0421794 7.36408 0.00808463 7.52894 0.00116117 11.6577C-0.00145146 13.034 0.00116117 14.8451 0.00116117 17.2747C0.00116117 24.4855 0.00926084 26.5941 0.0437475 27.0036C0.163406 28.4447 0.389267 29.3514 0.86777 30.3432C1.78219 32.2416 3.52873 33.6668 5.58618 34.1986C6.29851 34.382 7.0853 34.4832 8.09534 34.531C8.52342 34.5495 12.8855 34.5628 17.2501 34.5628C21.6149 34.5628 25.9797 34.5576 26.3969 34.5363C27.5666 34.4812 28.2458 34.39 28.9966 34.1959C31.0674 33.6616 32.7819 32.2576 33.715 30.3325C34.1841 29.3646 34.422 28.4234 34.5296 27.0575C34.5532 26.7597 34.563 22.0118 34.563 17.2701C34.563 12.5277 34.5522 7.7885 34.529 7.49066C34.4199 6.10271 34.182 5.16935 33.6977 4.18308C33.3003 3.37552 32.859 2.77239 32.2184 2.15581C31.0751 1.0636 29.677 0.398818 28.0107 0.158456C27.2034 0.0416716 27.0428 0.00718473 22.9118 0H17.2871Z" fill="url(#paint3_radial_39850_11655)"/>
<path d="M17.2887 4.43794C13.7987 4.43794 13.3606 4.45322 11.9899 4.51553C10.6219 4.57824 9.68813 4.79456 8.8709 5.11213C8.02571 5.44001 7.30881 5.87893 6.59451 6.59284C5.8797 7.30661 5.44052 8.02299 5.11133 8.86739C4.79258 9.6841 4.57574 10.6175 4.51434 11.984C4.45294 13.3538 4.43688 13.7917 4.43688 17.2791C4.43688 20.7666 4.45242 21.2029 4.51447 22.5726C4.57744 23.9396 4.79402 24.8729 5.11146 25.6893C5.43999 26.5338 5.87905 27.2504 6.5936 27.9641C7.30763 28.6784 8.02467 29.1181 8.8692 29.4461C9.68695 29.7637 10.621 29.9802 11.9888 30.0427C13.3595 30.105 13.7973 30.1203 17.2871 30.1203C20.7774 30.1203 21.214 30.105 22.5848 30.0427C23.9528 29.98 24.8879 29.7637 25.7054 29.4461C26.5503 29.1183 27.2661 28.6784 27.9802 27.9641C28.695 27.2504 29.1342 26.5338 29.4634 25.6896C29.7794 24.8729 29.9962 23.9394 30.0603 22.573C30.122 21.2032 30.1381 20.7666 30.1381 17.2791C30.1381 13.7917 30.122 13.3541 30.0605 11.9843C29.9962 10.6172 29.7794 9.6841 29.4635 8.86765C29.1342 8.02299 28.695 7.30661 27.9802 6.59284C27.2654 5.87854 26.5505 5.43975 25.7046 5.11213C24.8854 4.79456 23.951 4.57811 22.5829 4.51553C21.2122 4.45322 20.7757 4.43794 17.2847 4.43794H17.2887ZM16.1358 6.75207C16.4781 6.75155 16.8598 6.75207 17.2887 6.75207C20.7198 6.75207 21.1266 6.76435 22.4815 6.82588C23.7344 6.8831 24.4145 7.09237 24.8674 7.26807C25.4671 7.50085 25.8946 7.7791 26.3441 8.22847C26.7939 8.67784 27.0724 9.10592 27.3059 9.70526C27.4817 10.1572 27.6914 10.8369 27.7484 12.0889C27.8098 13.4426 27.8233 13.8491 27.8233 17.2763C27.8233 20.7031 27.81 21.1098 27.7484 22.4635C27.691 23.7155 27.4817 24.395 27.3059 24.8471C27.0729 25.4463 26.7939 25.8731 26.3441 26.3222C25.8944 26.7717 25.4674 27.0498 24.8674 27.2826C24.415 27.4592 23.7344 27.668 22.4815 27.7252C21.1269 27.7866 20.7198 27.8001 17.2887 27.8001C13.8572 27.8001 13.4507 27.7867 12.0959 27.7252C10.8429 27.6673 10.163 27.4582 9.70968 27.2824C9.11008 27.0497 8.68161 26.7715 8.23185 26.322C7.78208 25.8726 7.50371 25.4456 7.27014 24.8461C7.09431 24.394 6.88478 23.7144 6.82769 22.4625C6.76603 21.1087 6.75375 20.7021 6.75375 17.273C6.75375 13.8439 6.76603 13.4394 6.82769 12.0856C6.88491 10.8337 7.09418 10.1541 7.27014 9.7016C7.50306 9.10226 7.78208 8.67418 8.23185 8.22481C8.68161 7.77531 9.10995 7.4972 9.70968 7.26376C10.1627 7.08727 10.8429 6.87853 12.0959 6.82105C13.2814 6.76749 13.7408 6.75155 16.1358 6.74881V6.75207ZM24.1484 8.88424C23.2969 8.88424 22.6063 9.57358 22.6063 10.4246C22.6063 11.2753 23.2969 11.9656 24.1484 11.9656C24.9997 11.9656 25.6903 11.2753 25.6903 10.4246C25.6903 9.57384 24.9998 8.88424 24.1484 8.88424ZM17.2887 10.6846C13.644 10.6846 10.6893 13.6373 10.6893 17.2791C10.6893 20.921 13.6442 23.8722 17.2888 23.8722C20.9334 23.8722 23.887 20.921 23.887 17.2791C23.887 13.6373 20.9333 10.6846 17.2887 10.6846ZM17.2887 12.9987C19.6544 12.9987 21.5723 14.9151 21.5723 17.2791C21.5723 19.643 19.6543 21.5595 17.2887 21.5595C14.9229 21.5595 13.0051 19.643 13.0051 17.2791C13.0051 14.915 14.9228 12.9987 17.2887 12.9987Z" fill="var(--fill-0, white)"/>
</g>
<defs>
<radialGradient id="paint0_radial_39850_11655" cx="0" cy="0" r="1" gradientTransform="matrix(-21.2548 5.99436 -4.31871 -15.3131 33.447 16.1999)" gradientUnits="userSpaceOnUse">
<stop stop-color="#FF005F"/>
<stop offset="1" stop-color="#FC01D8"/>
</radialGradient>
<radialGradient id="paint1_radial_39850_11655" cx="0" cy="0" r="1" gradientUnits="userSpaceOnUse" gradientTransform="translate(9.18059 37.225) rotate(-90) scale(27.589 29.2714)">
<stop stop-color="#FFCC00"/>
<stop offset="0.124" stop-color="#FFCC00"/>
<stop offset="0.567" stop-color="#FE4A05"/>
<stop offset="0.694" stop-color="#FF0F3F"/>
<stop offset="1" stop-color="#FE0657" stop-opacity="0"/>
</radialGradient>
<radialGradient id="paint2_radial_39850_11655" cx="0" cy="0" r="1" gradientTransform="matrix(5.72644 -9.86684 12.8455 7.45522 18.1548 34.0754)" gradientUnits="userSpaceOnUse">
<stop stop-color="#FFCC00"/>
<stop offset="1" stop-color="#FFCC00" stop-opacity="0"/>
</radialGradient>
<radialGradient id="paint3_radial_39850_11655" cx="0" cy="0" r="1" gradientTransform="matrix(-21.0213 5.91924 -2.01616 -7.16208 4.68952 1.40728)" gradientUnits="userSpaceOnUse">
<stop stop-color="#780CFF"/>
<stop offset="1" stop-color="#820BFF" stop-opacity="0"/>
</radialGradient>
</defs>
</svg>
