<svg width="100%" height="100%" overflow="visible" style="display: block;" viewBox="0 0 31.858 31.7733" fill="none" xmlns="http://www.w3.org/2000/svg">
<path id="Vector" d="M31.8578 16.0131C31.8396 19.9243 30.3831 23.6922 27.7658 26.5987C25.1483 29.5051 21.5532 31.347 17.6651 31.7733V20.345H21.4071C21.5723 20.3463 21.732 20.287 21.8564 20.1783C21.9807 20.0695 22.0607 19.9189 22.0814 19.755L22.4858 16.2491C22.5006 16.1568 22.495 16.0627 22.4696 15.9728C22.4441 15.883 22.3991 15.7999 22.3381 15.7293C22.2771 15.6586 22.2015 15.6022 22.1162 15.5638C22.0312 15.5256 21.9386 15.5063 21.8453 15.5074H17.6651V12.6419C17.6651 11.3103 18.0359 10.4001 19.9407 10.4001H21.7105C21.8864 10.3957 22.0536 10.3228 22.1765 10.1968C22.2993 10.0708 22.3679 9.90183 22.3679 9.72589V6.70869C22.3635 6.53282 22.2905 6.36561 22.1645 6.2428C22.0385 6.11997 21.8695 6.05127 21.6937 6.05132H18.8282C18.0233 5.99356 17.2154 6.11218 16.461 6.39889C15.7068 6.68561 15.024 7.1335 14.4606 7.71131C13.8974 8.28912 13.4668 8.98292 13.1994 9.74427C12.9318 10.5056 12.8336 11.3162 12.9117 12.1194V15.4905H10.0968C10.0091 15.4905 9.9222 15.508 9.84133 15.5421C9.76046 15.5762 9.68723 15.6262 9.62595 15.689C9.56469 15.7519 9.51662 15.8263 9.4846 15.908C9.45256 15.9897 9.43723 16.077 9.43947 16.1648V19.6708C9.43947 19.8452 9.50873 20.0124 9.63202 20.1357C9.75529 20.2589 9.9225 20.3281 10.0968 20.3281H12.9117V31.5374C9.29727 30.8401 6.03582 28.9126 3.68195 26.0823C1.32806 23.2522 0.0270954 19.6942 0.000223249 16.0131C-0.0109111 13.9099 0.394545 11.8254 1.19322 9.87983C1.9919 7.93422 3.16797 6.16602 4.65355 4.6773C6.13915 3.18857 7.90486 2.00877 9.84878 1.206C11.7927 0.403227 13.8764 -0.00662511 15.9795 8.09824e-05C18.0741 0.00670743 20.147 0.426388 22.0791 1.23513C24.0115 2.04386 25.7651 3.22576 27.24 4.71314C28.7148 6.20054 29.8819 7.96423 30.6742 9.90323C31.4667 11.8422 31.8688 13.9185 31.8578 16.0131Z" fill="var(--fill-0, #1778F2)"/>
</svg>
