<svg preserveAspectRatio="none" width="100%" height="100%" overflow="visible" style="display: block;" viewBox="0 0 32 32" fill="none" xmlns="http://www.w3.org/2000/svg">
<g id="Frame">
<path id="Vector" d="M17.4093 9.90667C17.7189 9.5971 18.0864 9.35153 18.4909 9.18399C18.8954 9.01646 19.3289 8.93023 19.7667 8.93023C20.2045 8.93023 20.638 9.01646 21.0424 9.18399C21.4469 9.35153 21.8144 9.5971 22.124 9.90667C22.4336 10.2162 22.6791 10.5837 22.8467 10.9882C23.0142 11.3927 23.1004 11.8262 23.1004 12.264C23.1004 12.7018 23.0142 13.1353 22.8467 13.5398C22.6791 13.9443 22.4336 14.3118 22.124 14.6213C21.498 15.242 20.6517 15.5895 19.7702 15.5877C18.8886 15.5859 18.0437 15.235 17.4203 14.6117C16.7969 13.9885 16.4457 13.1436 16.4437 12.2621C16.4416 11.3806 16.7888 10.5341 17.4093 9.908M20.7093 11.3227C20.5855 11.1989 20.4384 11.1007 20.2766 11.0337C20.1148 10.9668 19.9413 10.9323 19.7662 10.9324C19.5911 10.9325 19.4177 10.967 19.2559 11.0341C19.0941 11.1012 18.9471 11.1995 18.8233 11.3233C18.6995 11.4472 18.6014 11.5943 18.5344 11.7561C18.4674 11.9179 18.433 12.0913 18.4331 12.2665C18.4331 12.4416 18.4677 12.615 18.5348 12.7768C18.6018 12.9386 18.7001 13.0855 18.824 13.2093C19.0742 13.4593 19.4134 13.5997 19.7671 13.5996C20.1208 13.5995 20.46 13.4589 20.71 13.2087C20.96 12.9585 21.1004 12.6192 21.1003 12.2655C21.1001 11.9118 20.9595 11.5727 20.7093 11.3227ZM28.6787 5.764C28.5021 5.19606 28.19 4.6796 27.7693 4.25917C27.3487 3.83873 26.832 3.52693 26.264 3.35067L25.38 3.076C23.8142 2.59025 22.1455 2.54143 20.5539 2.93478C18.9624 3.32814 17.5086 4.14874 16.3493 5.308L15.0213 6.636C14.1229 5.9641 13.0125 5.63835 11.8934 5.71842C10.7744 5.79849 9.72163 6.27902 8.928 7.072L7.27333 8.72667C7.08607 8.91417 6.98088 9.16833 6.98088 9.43333C6.98088 9.69833 7.08607 9.9525 7.27333 10.14L9.39467 12.2627L9.15467 12.5027C8.71744 12.9402 8.47183 13.5334 8.47183 14.152C8.47183 14.7706 8.71744 15.3638 9.15467 15.8013L9.816 16.4627L7.95467 17.524C7.8213 17.6003 7.70733 17.7064 7.62158 17.8339C7.53584 17.9614 7.48064 18.107 7.46026 18.2593C7.43989 18.4116 7.45488 18.5665 7.50409 18.7121C7.5533 18.8577 7.63539 18.99 7.744 19.0987L12.9293 24.2853C13.038 24.3939 13.1703 24.476 13.3159 24.5252C13.4615 24.5744 13.6164 24.5894 13.7687 24.5691C13.921 24.5487 14.0666 24.4935 14.1941 24.4077C14.3216 24.322 14.4277 24.208 14.504 24.0747L15.568 22.2147L16.2307 22.8773C16.4473 23.094 16.7046 23.2659 16.9877 23.3832C17.2708 23.5005 17.5742 23.5608 17.8807 23.5608C18.1871 23.5608 18.4905 23.5005 18.7736 23.3832C19.0568 23.2659 19.314 23.094 19.5307 22.8773L19.7667 22.6413L21.8867 24.7613C22.0742 24.9486 22.3283 25.0538 22.5933 25.0538C22.8583 25.0538 23.1125 24.9486 23.3 24.7613L24.956 23.104C25.7481 22.3108 26.2282 21.2589 26.3085 20.1408C26.3889 19.0226 26.064 17.913 25.3933 17.0147L26.724 15.684C27.884 14.5241 28.7049 13.0693 29.0981 11.4767C29.4912 9.88416 29.4416 8.21443 28.9547 6.648L28.6787 5.764ZM25.6707 5.26C26.1947 5.42267 26.6053 5.83333 26.768 6.35733L27.044 7.244C27.4224 8.46224 27.4606 9.76071 27.1547 10.9991C26.8487 12.2375 26.2102 13.3688 25.308 14.2707L18.1147 21.464C18.0522 21.5263 17.9676 21.5613 17.8793 21.5613C17.7911 21.5613 17.7065 21.5263 17.644 21.464L10.568 14.3893C10.537 14.3584 10.5123 14.3216 10.4955 14.2811C10.4787 14.2406 10.4701 14.1972 10.4701 14.1533C10.4701 14.1095 10.4787 14.0661 10.4955 14.0256C10.5123 13.9851 10.537 13.9483 10.568 13.9173L17.764 6.72267C18.6656 5.821 19.7964 5.18273 21.0343 4.87679C22.2722 4.57084 23.5701 4.60884 24.788 4.98667L25.6707 5.26ZM23.952 18.456C24.556 19.4773 24.4187 20.8147 23.5413 21.692L22.592 22.6413L21.1787 21.228L23.952 18.456ZM10.344 8.484C10.7621 8.06693 11.3068 7.80045 11.8927 7.72637C12.4786 7.65229 13.0726 7.77479 13.5813 8.07467L10.808 10.848L9.39467 9.43467L10.344 8.484ZM14.1013 20.7493L13.416 21.9453L10.0827 18.612L11.28 17.928L14.1013 20.7493ZM8.92 24.5253C9.09664 24.3358 9.1928 24.085 9.18823 23.826C9.18366 23.5669 9.07871 23.3197 8.8955 23.1365C8.71228 22.9533 8.4651 22.8483 8.20603 22.8438C7.94696 22.8392 7.69623 22.9354 7.50667 23.112L4.20533 26.4107C4.01774 26.5983 3.91235 26.8527 3.91235 27.118C3.91235 27.3833 4.01774 27.6377 4.20533 27.8253C4.39293 28.0129 4.64736 28.1183 4.91267 28.1183C5.17797 28.1183 5.4324 28.0129 5.62 27.8253L8.92 24.5253ZM6.32667 20.52C6.51393 20.7075 6.61912 20.9617 6.61912 21.2267C6.61912 21.4917 6.51393 21.7458 6.32667 21.9333L4.91333 23.348C4.72482 23.5302 4.47226 23.6312 4.21006 23.629C3.94786 23.6269 3.697 23.5218 3.5115 23.3365C3.32601 23.1512 3.22072 22.9004 3.21832 22.6382C3.21592 22.376 3.3166 22.1234 3.49867 21.9347L4.912 20.52C5.00487 20.4271 5.11513 20.3534 5.2365 20.3031C5.35787 20.2528 5.48796 20.2269 5.61933 20.2269C5.75071 20.2269 5.8808 20.2528 6.00216 20.3031C6.12353 20.3534 6.2338 20.4271 6.32667 20.52ZM11.5093 27.1227C11.6076 27.0311 11.6864 26.9207 11.741 26.7981C11.7957 26.6754 11.8251 26.543 11.8275 26.4087C11.8298 26.2744 11.8051 26.1411 11.7548 26.0165C11.7045 25.892 11.6297 25.7789 11.5347 25.684C11.4398 25.589 11.3266 25.5141 11.2021 25.4638C11.0776 25.4135 10.9442 25.3888 10.81 25.3912C10.6757 25.3936 10.5433 25.423 10.4206 25.4776C10.2979 25.5323 10.1875 25.6111 10.096 25.7093L8.684 27.12C8.50736 27.3096 8.4112 27.5603 8.41577 27.8194C8.42034 28.0784 8.52529 28.3256 8.7085 28.5088C8.89172 28.692 9.1389 28.797 9.39797 28.8016C9.65704 28.8061 9.90777 28.71 10.0973 28.5333L11.5093 27.1227Z" fill="var(--fill-0, #F9A6D8)"/>
</g>
</svg>
