<svg preserveAspectRatio="none" width="100%" height="100%" overflow="visible" style="display: block;" viewBox="0 0 32 32" fill="none" xmlns="http://www.w3.org/2000/svg">
<g id="Frame">
<path id="Vector" d="M11.3333 8.66667C11.3333 8.48986 11.4036 8.32029 11.5286 8.19526C11.6536 8.07024 11.8232 8 12 8H20C20.1768 8 20.3464 8.07024 20.4714 8.19526C20.5964 8.32029 20.6667 8.48986 20.6667 8.66667C20.6667 8.84348 20.5964 9.01305 20.4714 9.13807C20.3464 9.2631 20.1768 9.33333 20 9.33333H12C11.8232 9.33333 11.6536 9.2631 11.5286 9.13807C11.4036 9.01305 11.3333 8.84348 11.3333 8.66667ZM16.6053 14.88C16.418 14.7847 16.2108 14.735 16.0007 14.735C15.7905 14.735 15.5833 14.7847 15.396 14.88C15.0853 15.0387 14.9107 15.3293 14.8 15.5413C14.68 15.768 14.556 16.0693 14.412 16.4173L14.136 17.08L14.0427 17.2987L14.04 17.3013H14.036C13.9571 17.3112 13.878 17.3188 13.7987 17.324L13.084 17.3813C12.765 17.402 12.447 17.4353 12.1307 17.4813C11.8933 17.5213 11.564 17.5973 11.3173 17.8427C11.1688 17.9914 11.0575 18.1732 10.9927 18.3732C10.9278 18.5732 10.9111 18.7857 10.944 18.9933C10.9987 19.336 11.2213 19.592 11.3893 19.764C11.568 19.9467 11.816 20.1587 12.1013 20.404L12.6467 20.8707C12.7427 20.952 12.792 20.9947 12.8253 21.028L12.828 21.0307V21.0347C12.8125 21.1125 12.7947 21.1899 12.7747 21.2667L12.6093 21.9653C12.5287 22.2742 12.462 22.5865 12.4093 22.9013C12.3733 23.1387 12.344 23.476 12.5027 23.7867C12.5981 23.9737 12.7364 24.1356 12.9062 24.2591C13.076 24.3826 13.2726 24.4642 13.48 24.4973C13.824 24.5507 14.1347 24.4187 14.3507 24.312C14.58 24.1987 14.8573 24.028 15.1787 23.832L15.792 23.4587C15.8987 23.392 15.9547 23.3587 15.996 23.3373L16 23.3333L16.004 23.336C16.044 23.3573 16.1013 23.3907 16.208 23.456L16.8213 23.8307C17.1413 24.028 17.4213 24.1973 17.6493 24.3107C17.8653 24.4173 18.1773 24.5507 18.52 24.496C18.7277 24.4629 18.9247 24.3812 19.0948 24.2574C19.2649 24.1337 19.4033 23.9715 19.4987 23.784C19.656 23.4747 19.6267 23.1373 19.592 22.9C19.5378 22.5855 19.4711 22.2732 19.392 21.964L19.2253 21.2653L19.172 21.0333V21.0293L19.1747 21.0267C19.208 20.9933 19.2573 20.9507 19.3533 20.8693L19.8987 20.4027C20.184 20.1573 20.432 19.9453 20.6107 19.7627C20.7787 19.5907 21.0013 19.336 21.0547 18.992C21.0876 18.7844 21.0709 18.5719 21.006 18.3719C20.9411 18.1719 20.8299 17.9901 20.6813 17.8413C20.436 17.596 20.1067 17.52 19.868 17.48C19.5521 17.434 19.2345 17.4007 18.916 17.38L18.2013 17.3227C18.122 17.3179 18.0429 17.3108 17.964 17.3013H17.96L17.9587 17.2973L17.8653 17.0787L17.5893 16.416C17.4713 16.1189 17.3414 15.8267 17.2 15.54C17.0893 15.3267 16.9147 15.0373 16.604 14.88M15.6293 16.9573C15.7419 16.6754 15.8651 16.3979 15.9987 16.1253C16.0058 16.136 16.012 16.148 16.0173 16.1613C16.1053 16.328 16.208 16.5747 16.368 16.9573L16.632 17.592L16.6507 17.6373C16.72 17.8053 16.8067 18.0173 16.9573 18.1867C17.0868 18.3335 17.2471 18.4501 17.4267 18.528C17.6347 18.6187 17.8627 18.6347 18.044 18.6493L18.0933 18.6533L18.7787 18.708C19.082 18.7276 19.3844 18.7588 19.6853 18.8013L19.656 18.832C19.524 18.9667 19.3227 19.14 19.0067 19.4107L18.4853 19.8573L18.4467 19.8907C18.308 20.008 18.1333 20.1573 18.02 20.352C17.9204 20.5201 17.8589 20.7081 17.84 20.9027C17.8187 21.1293 17.872 21.3507 17.9147 21.528L17.9267 21.576L18.0867 22.244C18.161 22.5384 18.2242 22.8355 18.276 23.1347L18.24 23.1173C17.9841 22.9803 17.7333 22.8339 17.488 22.6787L16.9013 22.3213L16.86 22.2947C16.704 22.1987 16.5093 22.0787 16.2893 22.0293C16.0983 21.9868 15.9003 21.9868 15.7093 22.0293C15.505 22.0847 15.3116 22.1744 15.1373 22.2947L15.0947 22.3213L14.508 22.6787C14.2516 22.8406 13.9892 22.9927 13.7213 23.1347C13.7213 23.1231 13.7231 23.1098 13.7267 23.0947C13.7768 22.8087 13.8387 22.5249 13.912 22.244L14.072 21.5773L14.0827 21.528C14.1253 21.3507 14.1787 21.128 14.1573 20.9027C14.1388 20.7082 14.0778 20.5203 13.9787 20.352C13.8631 20.1751 13.7184 20.0191 13.5507 19.8907L13.512 19.8573L12.992 19.4107C12.7582 19.2167 12.5318 19.0139 12.3133 18.8027L12.3533 18.7947C12.54 18.764 12.8053 18.7413 13.22 18.708L13.904 18.6547L13.9533 18.6493C14.1347 18.636 14.3627 18.6187 14.5707 18.5293C14.7504 18.451 14.9107 18.334 15.04 18.1867C15.1907 18.0173 15.2773 17.8053 15.3467 17.6373L15.3653 17.592L15.6293 16.9573Z" fill="var(--fill-0, #F9A6D8)"/>
<path id="Vector_2" d="M18.164 4H13.836C12.3693 4 11.2253 4 10.3093 4.07467C9.37867 4.15067 8.62267 4.308 7.94267 4.65333C6.81339 5.22862 5.89529 6.14673 5.32 7.276C4.97333 7.956 4.81733 8.712 4.74133 9.64267C4.66667 10.56 4.66667 11.7013 4.66667 13.1693V18.8307C4.66667 20.2973 4.66667 21.4413 4.74133 22.3573C4.81733 23.288 4.97467 24.044 5.32 24.724C5.89529 25.8533 6.81339 26.7714 7.94267 27.3467C8.62267 27.6933 9.37867 27.8493 10.3093 27.9253C11.2267 28 12.368 28 13.836 28H18.164C19.6307 28 20.7747 28 21.6907 27.9253C22.6213 27.8493 23.3773 27.692 24.0573 27.3467C25.1866 26.7714 26.1047 25.8533 26.68 24.724C27.0267 24.044 27.1827 23.288 27.2587 22.3573C27.3333 21.4413 27.3333 20.2987 27.3333 18.8307V13.1693C27.3333 11.7027 27.3333 10.5587 27.2587 9.64267C27.1827 8.712 27.0253 7.956 26.68 7.276C26.1047 6.14673 25.1866 5.22862 24.0573 4.65333C23.3773 4.30667 22.6213 4.15067 21.6907 4.07467C20.7733 4 19.632 4 18.164 4ZM8.54667 5.84133C9.008 5.60667 9.568 5.47333 10.4173 5.404C11.2733 5.33333 12.3627 5.33333 13.8667 5.33333H18.1333C19.6373 5.33333 20.7267 5.33333 21.5813 5.404C22.4307 5.47333 22.9907 5.60667 23.452 5.84133C24.3304 6.2888 25.0445 7.00293 25.492 7.88133C25.7267 8.34267 25.86 8.90267 25.9293 9.752C25.98 10.3613 25.9947 11.088 25.9987 12H6C6.00533 11.088 6.01867 10.36 6.06933 9.752C6.13867 8.90267 6.272 8.34267 6.50667 7.88133C6.95413 7.00293 7.66827 6.2888 8.54667 5.84133ZM6 13.3333H26V18.8C26 20.304 26 21.3933 25.9293 22.248C25.86 23.0973 25.7267 23.6573 25.492 24.1187C25.0445 24.9971 24.3304 25.7112 23.452 26.1587C22.9907 26.3933 22.4307 26.5267 21.5827 26.596C20.7267 26.6667 19.6373 26.6667 18.1333 26.6667H13.8667C12.3627 26.6667 11.2733 26.6667 10.4187 26.596C9.56933 26.5267 9.00933 26.3933 8.548 26.1587C7.6696 25.7112 6.95546 24.9971 6.508 24.1187C6.27333 23.6573 6.14 23.0973 6.07067 22.2493C6 21.3933 6 20.304 6 18.8V13.3333Z" fill="var(--fill-0, #F9A6D8)"/>
<path id="Vector_3" fill-rule="evenodd" clip-rule="evenodd" d="M12.4293 21.124L11.8747 20.648C11.5973 20.4107 11.34 20.1907 11.1507 19.9973C10.9773 19.8187 10.6867 19.4987 10.616 19.0453C10.575 18.7859 10.596 18.5205 10.6771 18.2707C10.7582 18.021 10.8971 17.7939 11.0827 17.608C11.4067 17.2827 11.8293 17.1947 12.0747 17.152C12.3413 17.1067 12.6787 17.08 13.044 17.0507L13.772 16.992L13.812 16.9893L13.828 16.952L14.108 16.2773C14.2493 15.9387 14.3787 15.6267 14.504 15.3867C14.62 15.1667 14.8347 14.792 15.244 14.584C15.4782 14.4648 15.7372 14.4027 16 14.4027C16.2628 14.4027 16.5218 14.4648 16.756 14.584C17.1653 14.792 17.38 15.1667 17.496 15.3867C17.6213 15.6267 17.7507 15.9387 17.892 16.2773L18.172 16.952L18.188 16.9893L18.228 16.992L18.956 17.0507C19.3213 17.08 19.6587 17.1067 19.9253 17.152C20.1707 17.1933 20.592 17.2827 20.9173 17.608C21.2947 17.984 21.468 18.5187 21.384 19.0453C21.3133 19.4987 21.024 19.8187 20.8493 19.9973C20.66 20.1907 20.4027 20.4107 20.1253 20.648L19.5707 21.124L19.54 21.1507L19.5493 21.1907L19.7187 21.9C19.804 22.256 19.8827 22.5853 19.9213 22.8533C19.9573 23.0987 20.004 23.528 19.7947 23.9373C19.6752 24.1712 19.5022 24.3735 19.2898 24.5279C19.0773 24.6822 18.8313 24.7841 18.572 24.8253C18.1187 24.8987 17.724 24.7213 17.5013 24.612L17.6493 24.312C17.8653 24.4187 18.1773 24.552 18.52 24.4973C18.7277 24.4643 18.9247 24.3825 19.0948 24.2588C19.2649 24.135 19.4033 23.9728 19.4987 23.7853C19.656 23.476 19.6267 23.1387 19.592 22.9013C19.5378 22.5868 19.4711 22.2746 19.392 21.9653L19.2253 21.2667L19.172 21.0347V21.0307L19.1747 21.028C19.208 20.9947 19.2573 20.952 19.3533 20.8707L19.8987 20.404C20.184 20.1587 20.432 19.9467 20.6107 19.764C20.7787 19.592 21.0013 19.3373 21.0547 18.9933C21.0876 18.7857 21.0709 18.5732 21.006 18.3732C20.9411 18.1732 20.8299 17.9914 20.6813 17.8427C20.436 17.5973 20.1067 17.5213 19.868 17.4813C19.5521 17.4354 19.2345 17.402 18.916 17.3813L18.2013 17.324C18.122 17.3192 18.0429 17.3121 17.964 17.3027H17.96L17.9587 17.2987L17.8653 17.08L17.5893 16.4173C17.4713 16.1203 17.3414 15.828 17.2 15.5413C17.0893 15.328 16.9147 15.0387 16.604 14.8813C16.4169 14.7862 16.2099 14.7367 16 14.7367C15.7901 14.7367 15.5831 14.7862 15.396 14.8813C15.0853 15.0387 14.9107 15.3293 14.8 15.5413C14.68 15.768 14.556 16.0693 14.412 16.4173L14.136 17.08L14.0427 17.2987L14.04 17.3013H14.036C13.9571 17.3112 13.878 17.3188 13.7987 17.324L13.084 17.3813C12.765 17.402 12.447 17.4353 12.1307 17.4813C11.8933 17.5213 11.564 17.5973 11.3173 17.8427C11.1688 17.9914 11.0575 18.1732 10.9927 18.3732C10.9278 18.5732 10.9111 18.7857 10.944 18.9933C10.9987 19.336 11.2213 19.592 11.3893 19.764C11.568 19.9467 11.816 20.1587 12.1013 20.404L12.6467 20.8707C12.7427 20.952 12.792 20.9947 12.8253 21.028L12.828 21.0307V21.0347C12.8125 21.1125 12.7947 21.1899 12.7747 21.2667L12.6093 21.9653C12.5287 22.2742 12.462 22.5865 12.4093 22.9013C12.3733 23.1387 12.344 23.476 12.5027 23.7867C12.5981 23.9737 12.7364 24.1356 12.9062 24.2591C13.076 24.3826 13.2726 24.4642 13.48 24.4973C13.824 24.5507 14.1347 24.4187 14.3507 24.312C14.58 24.1987 14.8573 24.028 15.1787 23.832L15.792 23.4587C15.8987 23.392 15.9547 23.3587 15.996 23.3373L16 23.3333L16.004 23.336C16.044 23.3573 16.1013 23.3907 16.208 23.456L16.8213 23.8307C17.1413 24.028 17.4213 24.1987 17.6493 24.312L17.5027 24.6093C17.2149 24.4586 16.9333 24.2962 16.6587 24.1227L16.0347 23.7413L16 23.72L15.9653 23.7413L15.3413 24.1227C15.0293 24.3133 14.7413 24.4893 14.4987 24.6093C14.276 24.72 13.8813 24.8973 13.428 24.8253C13.1685 24.784 12.9225 24.6818 12.71 24.5273C12.4975 24.3727 12.3246 24.1701 12.2053 23.936C11.996 23.5267 12.0427 23.0973 12.0787 22.852C12.1187 22.5853 12.196 22.2547 12.2813 21.8987L12.4507 21.188L12.46 21.148L12.4293 21.124ZM16.0333 16.188L16 16.1253L15.9667 16.188C15.9137 16.2943 15.8644 16.4024 15.8187 16.512C15.7653 16.6338 15.7027 16.7822 15.6307 16.9573L15.3667 17.592L15.348 17.6373C15.2776 17.8365 15.1739 18.0222 15.0413 18.1867C14.9118 18.3335 14.7516 18.4501 14.572 18.528C14.364 18.6187 14.136 18.6347 13.9547 18.6493L13.9053 18.6533L13.22 18.708L12.74 18.748C12.5978 18.7604 12.4796 18.7747 12.3853 18.7907C12.3747 18.7907 12.3644 18.792 12.3547 18.7947L12.3147 18.8027L12.3427 18.832L12.364 18.8533C12.4324 18.9209 12.52 19.0013 12.6267 19.0947C12.7262 19.1836 12.848 19.2889 12.992 19.4107L13.5133 19.8573L13.552 19.8907C13.6907 20.008 13.8653 20.1573 13.98 20.352C14.0792 20.5203 14.1402 20.7082 14.1587 20.9027C14.1813 21.1293 14.1267 21.3507 14.084 21.528L14.072 21.576L13.912 22.244L13.8027 22.7147C13.7704 22.8535 13.7437 22.9937 13.7227 23.1347L13.7867 23.104C13.8711 23.0604 13.9747 23.0022 14.0973 22.9293L14.5107 22.6787L15.0973 22.3213L15.1387 22.2947C15.2947 22.1987 15.4893 22.0787 15.7107 22.0293C15.9017 21.9868 16.0997 21.9868 16.2907 22.0293C16.5107 22.0787 16.7067 22.1987 16.8613 22.2947L16.904 22.3213L17.4907 22.6787L17.904 22.9293C18.0257 23.0027 18.1502 23.0712 18.2773 23.1347L18.276 23.12L18.272 23.0947C18.272 23.084 18.2707 23.0738 18.268 23.064C18.2483 22.9468 18.2248 22.8303 18.1973 22.7147L18.088 22.244L17.928 21.5773L17.916 21.528C17.8559 21.3253 17.8306 21.1138 17.8413 20.9027C17.8598 20.7082 17.9208 20.5203 18.02 20.352C18.1355 20.1751 18.2803 20.0191 18.448 19.8907L18.4867 19.8573L19.008 19.4107C19.152 19.2889 19.2738 19.1836 19.3733 19.0947C19.4635 19.0176 19.5511 18.9376 19.636 18.8547L19.6573 18.832L19.6853 18.8027L19.6453 18.7947L19.6147 18.7907C19.4974 18.773 19.3795 18.7592 19.2613 18.7493L18.78 18.7093L18.0947 18.6533L18.0453 18.6493C17.8343 18.6445 17.6255 18.604 17.428 18.5293C17.2483 18.451 17.088 18.334 16.9587 18.1867C16.808 18.0173 16.7213 17.8053 16.652 17.6373L16.6333 17.592L16.3693 16.9573C16.2973 16.7822 16.2351 16.6338 16.1827 16.512C16.1365 16.4024 16.0867 16.2943 16.0333 16.188ZM16 16.9373L15.9387 17.0853L15.6747 17.7187L15.656 17.764L15.6507 17.7773C15.584 17.94 15.4787 18.196 15.2907 18.408C15.1288 18.5916 14.9285 18.7372 14.704 18.8347C14.4453 18.9467 14.1707 18.968 13.9947 18.9813H13.9813L13.932 18.9853L13.2467 19.0413L13.0867 19.0547L13.2093 19.1573L13.7293 19.604L13.768 19.636L13.7787 19.6453C13.912 19.7587 14.1227 19.9387 14.2667 20.1813C14.392 20.392 14.4667 20.628 14.4907 20.872C14.5173 21.1533 14.452 21.4213 14.4107 21.592L14.408 21.6053L14.396 21.6533L14.236 22.3213L14.2 22.4773L14.336 22.3947L14.9227 22.0373L14.964 22.0107L14.9773 22.0027C15.1253 21.9107 15.3613 21.7667 15.6373 21.704C15.8773 21.6507 16.124 21.6507 16.3627 21.704C16.6387 21.7667 16.8747 21.9107 17.024 22.0027L17.036 22.0107L17.0773 22.0373L17.664 22.3947L17.8 22.4773L17.7627 22.3213L17.6027 21.6547L17.592 21.6067L17.5893 21.5933C17.5217 21.3592 17.4946 21.1152 17.5093 20.872C17.5323 20.6281 17.6088 20.3923 17.7333 20.1813C17.8773 19.9387 18.088 19.7587 18.2213 19.6453L18.232 19.636L18.2693 19.604L18.7907 19.1573L18.912 19.0533L18.752 19.04L18.0693 18.9867L18.02 18.9827L18.0067 18.9813C17.763 18.9711 17.5226 18.9215 17.2947 18.8347C17.0702 18.7372 16.8699 18.5916 16.708 18.408C16.5533 18.2198 16.432 18.0065 16.3493 17.7773L16.344 17.764L16.3253 17.72L16.0613 17.0853L16 16.9373ZM18.1787 3.66667C19.6333 3.66667 20.788 3.66667 21.7173 3.74267C22.6693 3.82 23.4733 3.98267 24.2093 4.356C25.4009 4.96379 26.3694 5.93323 26.976 7.12533C27.3507 7.85867 27.5133 8.664 27.5907 9.616C27.6667 10.5453 27.6667 11.7 27.6667 13.1547V18.8453C27.6667 20.3 27.6667 21.4547 27.5907 22.384C27.5133 23.336 27.3507 24.14 26.9773 24.876C26.3699 26.0673 25.4009 27.0358 24.2093 27.6427C23.4733 28.0173 22.6693 28.18 21.7173 28.2573C20.788 28.3333 19.6333 28.3333 18.1787 28.3333H13.8213C12.3667 28.3333 11.212 28.3333 10.2827 28.2573C9.33067 28.18 8.52667 28.0173 7.792 27.644C6.60018 27.0368 5.63122 26.0678 5.024 24.876C4.64933 24.14 4.48667 23.336 4.40933 22.384C4.33333 21.4547 4.33333 20.3 4.33333 18.8453V13.1547C4.33333 11.7 4.33333 10.5453 4.40933 9.616C4.48667 8.664 4.64933 7.86 5.02267 7.12533C5.63023 5.93331 6.59969 4.96433 7.792 4.35733C8.52533 3.98267 9.33067 3.82 10.2827 3.74267C11.212 3.66667 12.3667 3.66667 13.8227 3.66667H18.1787ZM10.4453 5.736C9.61867 5.80267 9.10533 5.932 8.69867 6.13867C7.88351 6.55408 7.22075 7.21684 6.80533 8.032C6.59867 8.43867 6.47067 8.952 6.40267 9.77867C6.36 10.2987 6.344 10.912 6.336 11.6667H25.6627C25.6632 11.0368 25.6414 10.407 25.5973 9.77867C25.5307 8.952 25.4013 8.43867 25.1947 8.032C24.7793 7.21684 24.1165 6.55408 23.3013 6.13867C22.8947 5.932 22.3813 5.804 21.5547 5.736C20.7147 5.668 19.6427 5.66667 18.1333 5.66667H13.8667C12.356 5.66667 11.284 5.66667 10.4453 5.736ZM25.996 11.6667C25.9967 11.0279 25.9745 10.3892 25.9293 9.752C25.86 8.90267 25.7267 8.34267 25.492 7.88133C25.0445 7.00293 24.3304 6.2888 23.452 5.84133C22.9907 5.60667 22.4307 5.47333 21.5827 5.404C20.7267 5.33333 19.6373 5.33333 18.1333 5.33333H13.8667C12.3627 5.33333 11.2733 5.33333 10.4187 5.404C9.56933 5.47333 9.00933 5.60667 8.548 5.84133C7.6696 6.2888 6.95546 7.00293 6.508 7.88133C6.27333 8.34267 6.14 8.90267 6.07067 9.752C6.02667 10.2853 6.01067 10.908 6.004 11.6667L6 12H26L25.996 11.6667ZM6.33333 13.6667V18.8C6.33333 20.3107 6.33333 21.3827 6.40267 22.2213C6.46933 23.048 6.59867 23.5613 6.80533 23.968C7.22075 24.7832 7.88351 25.4459 8.69867 25.8613C9.10533 26.068 9.61867 26.196 10.4453 26.264C11.2853 26.332 12.356 26.3333 13.8667 26.3333H18.1333C19.644 26.3333 20.716 26.3333 21.5547 26.264C22.3813 26.1973 22.8947 26.068 23.3013 25.8613C24.1165 25.4459 24.7793 24.7832 25.1947 23.968C25.4013 23.5613 25.5293 23.048 25.5973 22.2213C25.6653 21.3813 25.6667 20.3093 25.6667 18.8V13.6667H6.33333ZM11 8.66667C11 8.40145 11.1054 8.1471 11.2929 7.95956C11.4804 7.77202 11.7348 7.66667 12 7.66667H20C20.2652 7.66667 20.5196 7.77202 20.7071 7.95956C20.8946 8.1471 21 8.40145 21 8.66667C21 8.93188 20.8946 9.18624 20.7071 9.37377C20.5196 9.56131 20.2652 9.66667 20 9.66667H12C11.7348 9.66667 11.4804 9.56131 11.2929 9.37377C11.1054 9.18624 11 8.93188 11 8.66667ZM13.836 4H18.164C19.6307 4 20.7747 4 21.6907 4.07467C22.6213 4.15067 23.3773 4.308 24.0573 4.65333C25.1866 5.22863 26.1047 6.14673 26.68 7.276C27.0267 7.956 27.1827 8.712 27.2587 9.64267C27.3333 10.5587 27.3333 11.7013 27.3333 13.1693V18.8307C27.3333 20.2973 27.3333 21.4413 27.2587 22.3573C27.1827 23.288 27.0253 24.044 26.68 24.724C26.1047 25.8533 25.1866 26.7714 24.0573 27.3467C23.3773 27.6933 22.6213 27.8493 21.6907 27.9253C20.7747 28 19.632 28 18.164 28H13.836C12.3693 28 11.2253 28 10.3093 27.9253C9.37867 27.8493 8.62267 27.692 7.94267 27.3467C6.81339 26.7714 5.89529 25.8533 5.32 24.724C4.97333 24.044 4.81733 23.288 4.74133 22.3573C4.66667 21.4413 4.66667 20.2987 4.66667 18.8307V13.1693C4.66667 11.7027 4.66667 10.5587 4.74133 9.64267C4.81733 8.712 4.97467 7.956 5.32 7.276C5.89529 6.14673 6.81339 5.22863 7.94267 4.65333C8.62267 4.30667 9.37867 4.15067 10.3093 4.07467C11.2267 4 12.368 4 13.836 4ZM6 13.3333V18.8C6 20.304 6 21.3933 6.07067 22.248C6.14 23.0973 6.27333 23.6573 6.508 24.1187C6.95546 24.9971 7.6696 25.7112 8.548 26.1587C9.00933 26.3933 9.56933 26.5267 10.4187 26.596C11.2733 26.6667 12.3627 26.6667 13.8667 26.6667H18.1333C19.6373 26.6667 20.7267 26.6667 21.5813 26.596C22.4307 26.5267 22.9907 26.3933 23.452 26.1587C24.3304 25.7112 25.0445 24.9971 25.492 24.1187C25.7267 23.6573 25.86 23.0973 25.9293 22.2493C26 21.3933 26 20.304 26 18.8V13.3333H6ZM11.3333 8.66667C11.3333 8.48986 11.4036 8.32029 11.5286 8.19526C11.6536 8.07024 11.8232 8 12 8H20C20.1768 8 20.3464 8.07024 20.4714 8.19526C20.5964 8.32029 20.6667 8.48986 20.6667 8.66667C20.6667 8.84348 20.5964 9.01305 20.4714 9.13807C20.3464 9.2631 20.1768 9.33333 20 9.33333H12C11.8232 9.33333 11.6536 9.2631 11.5286 9.13807C11.4036 9.01305 11.3333 8.84348 11.3333 8.66667Z" fill="var(--fill-0, #F9A6D8)"/>
</g>
</svg>
