<svg preserveAspectRatio="none" width="100%" height="100%" overflow="visible" style="display: block;" viewBox="0 0 32 32" fill="none" xmlns="http://www.w3.org/2000/svg">
<g id="Group">
<g id="Vector">
</g>
<path id="Vector_2" d="M26.1493 16C26.572 15.9998 26.9887 16.1001 27.365 16.2927C27.7413 16.4852 28.0665 16.7644 28.3136 17.1073C28.5608 17.4502 28.7229 17.8469 28.7866 18.2648C28.8503 18.6827 28.8138 19.1097 28.68 19.5107L26.5973 25.7547C26.5089 26.0201 26.3393 26.2509 26.1125 26.4146C25.8856 26.5783 25.6131 26.6665 25.3333 26.6667H9.33333C8.97971 26.6667 8.64057 26.5262 8.39052 26.2761C8.14048 26.0261 8 25.687 8 25.3333C8 24.9797 8.14048 24.6406 8.39052 24.3905C8.64057 24.1405 8.97971 24 9.33333 24H13.7067L15.6133 18.2787C15.8345 17.6154 16.2587 17.0386 16.8258 16.6296C17.3929 16.2207 18.0742 16.0004 18.7733 16H26.1493ZM12 16C12.3536 16 12.6928 16.1405 12.9428 16.3905C13.1929 16.6406 13.3333 16.9797 13.3333 17.3333C13.3333 17.687 13.1929 18.0261 12.9428 18.2761C12.6928 18.5262 12.3536 18.6667 12 18.6667C9.636 18.6667 8.16 19.3933 7.19333 20.36C6.19333 21.3573 5.61067 22.744 5.308 24.2613C5.23443 24.6038 5.02902 24.9036 4.73617 25.0959C4.44332 25.2882 4.08657 25.3575 3.74304 25.2888C3.39951 25.2201 3.09681 25.019 2.90038 24.7289C2.70395 24.4389 2.62957 24.0831 2.69333 23.7387C3.056 21.9227 3.80533 19.976 5.30667 18.4747C6.84 16.94 9.032 16 12 16ZM18.7747 18.6667C18.6348 18.6668 18.4985 18.7109 18.3851 18.7927C18.2717 18.8745 18.1869 18.99 18.1427 19.1227L16.516 24H24.372L26.1493 18.6667H18.7747ZM14.668 9.33333C14.668 8.62609 14.387 7.94781 13.887 7.44772C13.3869 6.94762 12.7086 6.66667 12.0013 6.66667C11.2941 6.66667 10.6158 6.94762 10.1157 7.44772C9.61562 7.94781 9.33467 8.62609 9.33467 9.33333C9.33467 10.0406 9.61562 10.7189 10.1157 11.219C10.6158 11.719 11.2941 12 12.0013 12C12.7086 12 13.3869 11.719 13.887 11.219C14.387 10.7189 14.668 10.0406 14.668 9.33333ZM25.3347 4C25.6126 4.00039 25.8834 4.0876 26.1093 4.24944C26.3352 4.41128 26.5049 4.63966 26.5947 4.90267L26.852 5.65067C26.9178 5.84336 27.0269 6.01842 27.1709 6.16241C27.3149 6.3064 27.49 6.4155 27.6827 6.48133L28.4307 6.73867C28.6936 6.82876 28.9218 6.99877 29.0834 7.22493C29.2449 7.45108 29.3318 7.72206 29.3318 8C29.3318 8.27794 29.2449 8.54892 29.0834 8.77507C28.9218 9.00123 28.6936 9.17124 28.4307 9.26133L27.6827 9.51867C27.49 9.5845 27.3149 9.6936 27.1709 9.83759C27.0269 9.98158 26.9178 10.1566 26.852 10.3493L26.5947 11.0973C26.5046 11.3603 26.3346 11.5885 26.1084 11.75C25.8823 11.9116 25.6113 11.9984 25.3333 11.9984C25.0554 11.9984 24.7844 11.9116 24.5583 11.75C24.3321 11.5885 24.1621 11.3603 24.072 11.0973L23.8147 10.3493C23.7488 10.1566 23.6397 9.98158 23.4957 9.83759C23.3518 9.6936 23.1767 9.5845 22.984 9.51867L22.236 9.26133C21.9731 9.17124 21.7449 9.00123 21.5833 8.77507C21.4217 8.54892 21.3349 8.27794 21.3349 8C21.3349 7.72206 21.4217 7.45108 21.5833 7.22493C21.7449 6.99877 21.9731 6.82876 22.236 6.73867L22.984 6.48133C23.1767 6.4155 23.3518 6.3064 23.4957 6.16241C23.6397 6.01842 23.7488 5.84336 23.8147 5.65067L24.072 4.90267C24.296 4.38 24.7373 4 25.3347 4ZM17.3333 9.33333C17.3333 10.7478 16.7714 12.1044 15.7712 13.1046C14.771 14.1048 13.4145 14.6667 12 14.6667C10.5855 14.6667 9.22896 14.1048 8.22876 13.1046C7.22857 12.1044 6.66667 10.7478 6.66667 9.33333C6.66667 7.91885 7.22857 6.56229 8.22876 5.5621C9.22896 4.5619 10.5855 4 12 4C13.4145 4 14.771 4.5619 15.7712 5.5621C16.7714 6.56229 17.3333 7.91885 17.3333 9.33333Z" fill="var(--fill-0, #F9A6D8)"/>
</g>
</svg>
