<svg preserveAspectRatio="none" width="100%" height="100%" overflow="visible" style="display: block;" viewBox="0 0 58.9099 55.3079" fill="none" xmlns="http://www.w3.org/2000/svg">
<g id="Group">
<path id="Vector" d="M3.75046 1.30144C2.20818 2.22516 2.20818 4.99691 3.75046 7.49228L8.45678 15.2451C9.18106 16.4382 10.742 16.8071 11.9238 16.0646L15.7979 13.6307C17.3401 12.707 17.3401 9.93526 15.7979 7.43988C14.2556 4.94451 11.7551 3.67044 10.2128 4.59416C10.0493 4.69214 9.90303 4.81088 9.77416 4.94788C9.64528 4.67956 9.49908 4.41181 9.33551 4.14716C7.79323 1.65176 5.29273 0.377685 3.75046 1.30144Z" fill="var(--fill-0, #F20093)" fill-opacity="0.1"/>
<path id="Vector_2" d="M34.9455 1.00048L30.1445 3.47776L35.5275 5.65041L40.0988 9.06066L45.7583 19.7267L45.7065 29.7505L44.4565 33.5005L49.544 31.3715L51.8015 26.5347V17.2829L47.9863 9.06066L41.7865 2.40386L34.9455 1.00048Z" fill="var(--fill-0, #F20093)" fill-opacity="0.1"/>
<path id="Vector_3" d="M26.6385 5.67784C21.9683 8.75794 21.8252 17.6512 26.3188 25.5415L33.1343 37.509C33.8493 38.7645 35.477 39.1543 36.683 38.3588L42.9113 34.2513C47.5813 31.171 47.7245 22.2779 43.231 14.3875C38.7373 6.49719 31.3085 2.59774 26.6385 5.67784Z" stroke="var(--stroke-0, #61003B)" stroke-width="2"/>
<path id="Vector_4" d="M40.4154 35.8886L48.7929 31.5978C53.4632 28.5178 53.4652 18.6544 48.9717 10.7641C44.4779 2.87386 37.4619 -0.0312283 32.4252 2.68596L27.0127 5.44736" stroke="var(--stroke-0, #61003B)" stroke-width="2"/>
<path id="Vector_5" d="M29.6223 17.0435C29.7346 14.4454 31.6638 13.3459 33.9313 14.5877C36.1988 15.8295 37.9461 18.9423 37.8336 21.5403C37.7211 24.1385 35.7918 25.238 33.5243 23.996C31.2568 22.7544 29.5098 19.6416 29.6223 17.0435Z" fill="var(--fill-0, #61003B)"/>
<path id="Vector_6" d="M26.9549 26.0006L1.69098 38.6326C0.769673 39.0931 0.769671 40.4081 1.69098 40.8686L27.7779 53.9121C28.8337 54.4399 30.0762 54.4399 31.1319 53.9121L57.2189 40.8686C58.1402 40.4081 58.1402 39.0931 57.2189 38.6326L45.7049 32.8756" stroke="var(--stroke-0, #61003B)" stroke-width="2"/>
<path id="Vector_7" d="M16.9551 31.0005L19.4551 49.7505" stroke="var(--stroke-0, #61003B)" stroke-width="2"/>
<path id="Vector_8" d="M18.5664 43.4332L35.6437 38.7524" stroke="var(--stroke-0, #61003B)" stroke-width="2"/>
<path id="Vector_9" d="M3.75046 1.30144C2.20818 2.22516 2.20818 4.99691 3.75046 7.49228L8.45678 15.2451C9.18106 16.4382 10.742 16.8071 11.9238 16.0646L15.7979 13.6307C17.3401 12.707 17.3401 9.93526 15.7979 7.43988C14.2556 4.94451 11.7551 3.67044 10.2128 4.59416C10.0493 4.69214 9.90303 4.81088 9.77416 4.94788C9.64528 4.67956 9.49908 4.41181 9.33551 4.14716C7.79323 1.65176 5.29273 0.377685 3.75046 1.30144Z" stroke="var(--stroke-0, #61003B)" stroke-width="2" stroke-linejoin="round"/>
</g>
</svg>
