<svg width="60" height="60" viewBox="0 0 60 60" fill="none" xmlns="http://www.w3.org/2000/svg">
<path d="M49.5737 48.691L49.8184 45.8647L32.5757 54.4867L31.9189 57.5185L49.5737 48.691Z" fill="black" fill-opacity="0.3"/>
<path d="M18.7842 56.4384L21.6091 51.7666L24.4609 52.1738L26.4708 55.3518L25.493 58.2308H19.8164L18.7842 56.4384Z" fill="black" fill-opacity="0.3"/>
<path d="M49.9424 35L43.9639 37.7035L48.4699 41.3083L49.3709 44.0118L50.2721 48.5175L54.4481 46.715L56.2506 42.2092L53.5471 37.7035L49.9424 35Z" fill="black" fill-opacity="0.3"/>
<path d="M48.3306 49.6522C49.2276 49.2319 49.8194 48.2374 49.8886 46.7754C50.0254 43.8969 48.0856 40.2967 45.5559 38.7342C44.2196 37.9087 43.1319 37.8584 42.0996 38.3382" stroke="black" stroke-width="2.5"/>
<path d="M55.9546 43.7432C56.0913 40.8647 54.1513 37.2645 51.6218 35.7017C50.2856 34.8765 49.1978 34.8262 48.1656 35.3057L25.3906 46.6892C24.9878 46.8905 24.6469 47.1967 24.4038 47.5757L19.969 54.4905C18.9019 56.1545 20.0967 58.3402 22.0734 58.3402H30.3368C30.7246 58.3402 31.1068 58.25 31.4538 58.0767L54.3966 46.6197C55.2936 46.1997 55.8853 45.205 55.9546 43.7432Z" stroke="black" stroke-width="2.5"/>
<path d="M30.8999 58.3057C35.7476 56.0347 29.7371 44.818 24.7871 47.1182" stroke="black" stroke-width="2.5"/>
<path d="M21.3765 52.1446C24.5909 50.9074 28.0151 55.0769 25.1909 58.4069" stroke="black" stroke-width="2.5"/>
<path d="M31.6912 35.3423L24.0908 31.5423L51.25 18.75L53.586 20.1515C55.2795 21.1676 56.156 23.5636 54.3877 24.4434L31.6912 35.3423Z" fill="black" fill-opacity="0.3"/>
<path d="M51.2502 18.75L54.2779 20.2639C56.1207 21.1852 56.1207 23.8148 54.2779 24.7361L27.9272 37.9115C26.8714 38.4393 25.6289 38.4393 24.5731 37.9115L5.72228 28.486C3.87968 27.5647 3.87968 24.9352 5.72228 24.0139L8.75016 22.5" stroke="black" stroke-width="2.5"/>
<path d="M35.4272 3.33829L54.2779 12.7637C56.1207 13.685 56.1207 16.3145 54.2779 17.2358L27.9272 30.4113C26.8714 30.939 25.6289 30.939 24.5731 30.4113L5.72229 20.9858C3.87969 20.0645 3.87967 17.435 5.72229 16.5137L32.0732 3.33829C33.1289 2.81041 34.3714 2.81041 35.4272 3.33829Z" stroke="black" stroke-width="2.5"/>
<path d="M32.5 11.25L40 15" stroke="black" stroke-width="2.5" stroke-linecap="round"/>
<path d="M27.5 13.75L31.25 15.625" stroke="black" stroke-width="2.5" stroke-linecap="round"/>
</svg>
