<svg preserveAspectRatio="none" width="100%" height="100%" overflow="visible" style="display: block;" viewBox="0 0 141.655 151.728" fill="none" xmlns="http://www.w3.org/2000/svg">
<g id="Group">
<path id="Vector" d="M122.62 123.995L123.273 116.458L77.292 139.45L75.5406 147.535L122.62 123.995Z" fill="var(--fill-0, #61003B)"/>
<path id="Vector_2" d="M40.5156 144.656L48.0488 132.198L55.6536 133.284L61.0132 141.759L58.4058 149.436H43.2682L40.5156 144.656Z" fill="var(--fill-0, #61003B)"/>
<path id="Vector_3" d="M123.604 87.4871L107.661 94.6964L119.677 104.309L122.08 111.518L124.483 123.534L135.619 118.727L140.426 106.712L133.216 94.6964L123.604 87.4871Z" fill="var(--fill-0, #61003B)"/>
<path id="Vector_4" d="M119.308 126.559C121.7 125.439 123.278 122.787 123.463 118.888C123.828 111.212 118.655 101.611 111.909 97.4448C108.346 95.2435 105.445 95.1095 102.692 96.3888" stroke="var(--stroke-0, #2A0015)" stroke-width="4"/>
<path id="Vector_5" d="M139.637 110.802C140.001 103.126 134.828 93.5257 128.083 89.3584C124.519 87.1577 121.619 87.0237 118.866 88.3024L58.1327 118.658C57.0585 119.195 56.1494 120.012 55.5013 121.022L43.6752 139.462C40.8295 143.899 44.0157 149.728 49.287 149.728H71.3227C72.3567 149.728 73.376 149.487 74.3014 149.025L135.482 118.473C137.874 117.353 139.452 114.7 139.637 110.802Z" stroke="var(--stroke-0, #2A0015)" stroke-width="4"/>
<path id="Vector_6" d="M72.8257 149.634C85.7531 143.578 69.7251 113.667 56.525 119.801" stroke="var(--stroke-0, #2A0015)" stroke-width="4"/>
<path id="Vector_7" d="M47.4313 133.206C56.003 129.907 65.1343 141.025 57.603 149.905" stroke="var(--stroke-0, #2A0015)" stroke-width="4"/>
<path id="Vector_8" d="M74.9334 88.3997L54.6656 78.2663L127.09 44.1537L133.319 47.8911C137.835 50.6006 140.173 56.9899 135.457 59.3361L74.9334 88.3997Z" fill="var(--fill-0, #61003B)"/>
<path id="Vector_9" d="M127.093 44.1537L135.167 48.1908C140.081 50.6477 140.081 57.6597 135.167 60.1165L64.8982 95.251C62.0829 96.6583 58.7695 96.6583 55.9541 95.251L5.6852 70.1163C0.7716 67.6597 0.7716 60.6477 5.6852 58.1908L13.7595 54.1537" stroke="var(--stroke-0, #2A0015)" stroke-width="4"/>
<path id="Vector_10" d="M84.8984 3.05575L135.167 28.1902C140.081 30.647 140.081 37.659 135.167 40.1159L64.8984 75.2504C62.083 76.6577 58.7697 76.6577 55.9542 75.2504L5.68536 50.1159C0.771755 47.659 0.771688 40.647 5.68536 38.1901L75.9544 3.05575C78.7697 1.64808 82.083 1.64808 84.8984 3.05575Z" stroke="var(--stroke-0, #2A0015)" stroke-width="4"/>
<path id="Vector_11" d="M77.0938 24.1537L97.0938 34.1537" stroke="var(--stroke-0, #2A0015)" stroke-width="4" stroke-linecap="round"/>
<path id="Vector_12" d="M63.7594 30.8203L73.7594 35.8203" stroke="var(--stroke-0, #2A0015)" stroke-width="4" stroke-linecap="round"/>
</g>
</svg>
