<svg preserveAspectRatio="none" width="100%" height="100%" overflow="visible" style="display: block;" viewBox="0 0 53.6206 57.3974" fill="none" xmlns="http://www.w3.org/2000/svg">
<g id="Group">
<path id="Vector" d="M46.2348 46.7478L46.4796 43.9216L29.2368 52.5436L28.5801 55.5753L46.2348 46.7478Z" fill="var(--fill-0, #F20093)" fill-opacity="0.1"/>
<path id="Vector_2" d="M15.4434 54.4955L18.2683 49.8238L21.1201 50.231L23.1299 53.409L22.1522 56.288H16.4756L15.4434 54.4955Z" fill="var(--fill-0, #F20093)" fill-opacity="0.1"/>
<path id="Vector_3" d="M46.6025 33.0572L40.624 35.7607L45.13 39.3654L46.031 42.0689L46.9323 46.5747L51.1083 44.7722L52.9108 40.2664L50.2073 35.7607L46.6025 33.0572Z" fill="var(--fill-0, #F20093)" fill-opacity="0.1"/>
<path id="Vector_4" d="M44.9917 47.7093C45.8887 47.2891 46.4805 46.2946 46.5497 44.8326C46.6865 41.9541 44.7467 38.3538 42.217 36.7913C40.8807 35.9658 39.793 35.9156 38.7607 36.3953" stroke="var(--stroke-0, #61003B)" stroke-width="2"/>
<path id="Vector_5" d="M52.6138 41.8004C52.7505 38.9219 50.8105 35.3217 48.281 33.7589C46.9448 32.9337 45.857 32.8834 44.8248 33.3629L22.0498 44.7464C21.6469 44.9477 21.306 45.2539 21.063 45.6329L16.6282 52.5477C15.5611 54.2117 16.7559 56.3974 18.7326 56.3974H26.996C27.3838 56.3974 27.766 56.3072 28.113 56.1339L51.0558 44.6769C51.9528 44.2569 52.5445 43.2622 52.6138 41.8004Z" stroke="var(--stroke-0, #61003B)" stroke-width="2"/>
<path id="Vector_6" d="M27.562 56.3627C32.4097 54.0917 26.3992 42.8749 21.4492 45.1752" stroke="var(--stroke-0, #61003B)" stroke-width="2"/>
<path id="Vector_7" d="M18.0391 50.2018C21.2535 48.9646 24.6777 53.1341 21.8535 56.4641" stroke="var(--stroke-0, #61003B)" stroke-width="2"/>
<path id="Vector_8" d="M28.3524 33.3996L20.752 29.5996L47.9111 16.8073L50.2471 18.2088C51.9406 19.2249 52.8171 21.6209 51.0489 22.5007L28.3524 33.3996Z" fill="var(--fill-0, #F20093)" fill-opacity="0.1"/>
<path id="Vector_9" d="M47.9098 16.8073L50.9376 18.3212C52.7803 19.2426 52.7803 21.8721 50.9376 22.7934L24.5868 35.9688C23.5311 36.4966 22.2886 36.4966 21.2328 35.9688L2.38195 26.5433C0.53935 25.6221 0.53935 22.9926 2.38195 22.0712L5.40983 20.5573" stroke="var(--stroke-0, #61003B)" stroke-width="2"/>
<path id="Vector_10" d="M32.0868 1.39591L50.9376 10.8213C52.7803 11.7426 52.7803 14.3721 50.9376 15.2935L24.5868 28.4689C23.5311 28.9966 22.2886 28.9966 21.2328 28.4689L2.38196 19.0435C0.539359 18.1221 0.539334 15.4926 2.38196 14.5713L28.7328 1.39591C29.7886 0.868031 31.0311 0.868031 32.0868 1.39591Z" stroke="var(--stroke-0, #61003B)" stroke-width="2"/>
<path id="Vector_11" d="M29.1602 9.30731L36.6602 13.0573" stroke="var(--stroke-0, #61003B)" stroke-width="2" stroke-linecap="round"/>
<path id="Vector_12" d="M24.1621 11.8074L27.9121 13.6824" stroke="var(--stroke-0, #61003B)" stroke-width="2" stroke-linecap="round"/>
</g>
</svg>
