<svg width="60" height="60" viewBox="0 0 60 60" fill="none" xmlns="http://www.w3.org/2000/svg">
<path d="M8.25528 25.4307L3.26758 28.1347L7.86538 29.8967L13.9029 30.2709L23.9344 38.9557L22.9809 53.9162L28.7143 48.4299V36.3542L18.5753 27.4827L8.25528 25.4307Z" fill="black" fill-opacity="0.3"/>
<path d="M49.2324 55.917V24.667L56.7324 20.917V52.167L49.2324 55.917Z" fill="black" fill-opacity="0.3"/>
<path d="M49.2324 24.667L56.7324 20.917" stroke="black" stroke-width="2.5"/>
<path d="M14.2324 7.16699L49.2325 24.667V55.917" stroke="black" stroke-width="2.5"/>
<path d="M23.6059 19.8702C23.6059 21.3265 22.6239 21.9168 21.4124 21.1887C20.2009 20.4605 19.2188 18.6897 19.2188 17.2334C19.2188 15.7771 20.2009 15.1868 21.4124 15.9149C22.6239 16.6431 23.6059 18.4139 23.6059 19.8702Z" fill="black"/>
<path d="M30.7896 23.4645C30.7896 24.9208 29.8076 25.5109 28.5961 24.7829C27.3846 24.0548 26.4023 22.2839 26.4023 20.8276C26.4023 19.3713 27.3846 18.781 28.5961 19.5092C29.8076 20.2373 30.7896 22.0082 30.7896 23.4645Z" fill="black"/>
<path d="M14.2324 26.8378V8.71183C14.2324 7.76491 14.7674 6.89926 15.6144 6.47578L20.0554 4.25528C21.1111 3.72741 22.3537 3.72741 23.4095 4.25528L55.3505 20.2258C56.1975 20.6493 56.7325 21.5149 56.7325 22.4618V50.6218C56.7325 51.5688 56.1975 52.4343 55.3505 52.8578L50.9015 55.0823C49.8502 55.608 48.6135 55.6103 47.5602 55.0885L28.791 45.7925" stroke="black" stroke-width="2.5"/>
<path d="M16.8747 56.388C20.7428 56.1448 23.2755 53.3183 23.59 48.6153L24.2322 39.0118L23.6198 38.6293C20.3784 36.6055 17.2225 33.983 14.2981 30.8848C14.0399 30.6113 13.6745 30.4655 13.2987 30.482C10.4351 30.6083 7.40402 30.3373 4.23217 29.0835L3.36914 28.7695" stroke="black" stroke-width="2.5" stroke-miterlimit="10"/>
<path d="M3.41019 29.2785L3.96419 38.122C4.28619 43.2622 6.90254 49.0205 10.8628 53.3052L13.4896 56.1472C13.7448 56.4232 14.1107 56.5697 14.4859 56.5462L16.923 56.393C17.9943 56.3257 18.9673 56.0502 19.8231 55.589C26.7962 51.8307 28.343 50.6342 28.665 45.8222L29.2225 37.4902C29.284 36.57 28.831 35.6947 28.063 35.1842C24.7112 32.9565 21.6512 30.3612 18.898 27.4095C18.7954 27.2995 18.649 27.2412 18.4988 27.2485C15.2932 27.407 12.1821 26.6927 9.19251 25.6037C8.52561 25.3607 7.78726 25.3887 7.15221 25.7057L4.78881 26.8855C3.89036 27.3337 3.34741 28.2762 3.41019 29.2785Z" stroke="black" stroke-width="2.5" stroke-miterlimit="10" stroke-linecap="square"/>
<path d="M24.2324 39.022L28.8725 36.7197" stroke="black" stroke-width="2.5"/>
<path d="M19.0424 27.7202L13.5889 30.447" stroke="black" stroke-width="2.5"/>
</svg>
