<svg preserveAspectRatio="none" width="100%" height="100%" overflow="visible" style="display: block;" viewBox="0 0 155.76 146.154" fill="none" xmlns="http://www.w3.org/2000/svg">
<g id="Group">
<path id="Vector" d="M9.33455 2.8035C5.22182 5.26677 5.22182 12.6581 9.33455 19.3124L21.8848 39.9865C23.8162 43.1681 27.9785 44.152 31.1301 42.172L41.461 35.6816C45.5737 33.2184 45.5737 25.827 41.461 19.1727C37.3483 12.5184 30.6802 9.12084 26.5675 11.5841C26.1313 11.8454 25.7414 12.162 25.3977 12.5274C25.0541 11.8118 24.6642 11.0978 24.228 10.3921C20.1153 3.7377 13.4473 0.340171 9.33455 2.8035Z" fill="var(--fill-0, #61003B)"/>
<path id="Vector_2" d="M92.5152 2.00096L79.7125 8.60703L94.0672 14.4008L106.257 23.4948L121.349 51.9376L121.211 78.6676L117.878 88.6676L131.444 82.9903L137.464 70.0923V45.4208L127.29 23.4948L110.758 5.74329L92.5152 2.00096Z" fill="var(--fill-0, #61003B)"/>
<path id="Vector_3" d="M70.3663 14.4735C57.9124 22.6871 57.5307 46.4025 69.5136 67.4434L87.6883 99.3567C89.595 102.705 93.9356 103.744 97.1516 101.623L113.76 90.6694C126.214 82.4554 126.596 58.7403 114.613 37.6994C102.63 16.6585 82.8196 6.25993 70.3663 14.4735Z" stroke="var(--stroke-0, #2A0015)" stroke-width="4"/>
<path id="Vector_4" d="M107.105 95.0356L129.445 83.5936C141.899 75.3803 141.904 49.0779 129.921 28.0372C117.938 6.99643 99.2287 -0.750461 85.7974 6.49537L71.3641 13.8591" stroke="var(--stroke-0, #2A0015)" stroke-width="4"/>
<path id="Vector_5" d="M78.32 44.7821C78.6193 37.854 83.764 34.922 89.8106 38.2334C95.8573 41.5447 100.517 49.8455 100.217 56.7737C99.9166 63.7021 94.772 66.6341 88.7253 63.3221C82.6786 60.0111 78.02 51.7103 78.32 44.7821Z" fill="var(--fill-0, #2A0015)"/>
<path id="Vector_6" d="M71.2131 68.6676L3.84262 102.353C1.3858 103.581 1.38579 107.088 3.84262 108.316L73.4078 143.098C76.2231 144.506 79.5364 144.506 82.3518 143.098L151.917 108.316C154.374 107.088 154.374 103.581 151.917 102.353L121.213 87.0009" stroke="var(--stroke-0, #2A0015)" stroke-width="4"/>
<path id="Vector_7" d="M44.5469 82.001L51.2135 132.001" stroke="var(--stroke-0, #2A0015)" stroke-width="4"/>
<path id="Vector_8" d="M48.8391 115.155L94.3786 102.673" stroke="var(--stroke-0, #2A0015)" stroke-width="4"/>
<path id="Vector_9" d="M9.33455 2.8035C5.22182 5.26677 5.22182 12.6581 9.33455 19.3124L21.8848 39.9865C23.8162 43.1681 27.9785 44.152 31.1301 42.172L41.461 35.6816C45.5737 33.2184 45.5737 25.827 41.461 19.1727C37.3483 12.5184 30.6802 9.12084 26.5675 11.5841C26.1313 11.8454 25.7414 12.162 25.3977 12.5274C25.0541 11.8118 24.6642 11.0978 24.228 10.3921C20.1153 3.7377 13.4473 0.340171 9.33455 2.8035Z" stroke="var(--stroke-0, #2A0015)" stroke-width="4" stroke-linejoin="round"/>
</g>
</svg>
