<svg preserveAspectRatio="none" width="100%" height="100%" overflow="visible" style="display: block;" viewBox="0 0 55.3253 54.6898" fill="none" xmlns="http://www.w3.org/2000/svg">
<g id="Group">
<path id="Vector" d="M5.84708 22.5713L0.859385 25.2753L5.45718 27.0373L11.4947 27.4115L21.5262 36.0963L20.5727 51.0568L26.3061 45.5705V33.4948L16.1671 24.6233L5.84708 22.5713Z" fill="var(--fill-0, #F20093)" fill-opacity="0.1"/>
<path id="Vector_2" d="M46.8262 53.0574V21.8074L54.3262 18.0574V49.3074L46.8262 53.0574Z" fill="var(--fill-0, #F20093)" fill-opacity="0.1"/>
<path id="Vector_3" d="M46.8262 21.8074L54.3262 18.0574" stroke="var(--stroke-0, #61003B)" stroke-width="2"/>
<path id="Vector_4" d="M11.8252 4.30762L46.8253 21.8076V53.0576" stroke="var(--stroke-0, #61003B)" stroke-width="2"/>
<path id="Vector_5" d="M21.1987 17.0112C21.1987 18.4675 20.2166 19.0578 19.0051 18.3297C17.7936 17.6015 16.8115 15.8306 16.8115 14.3743C16.8115 12.918 17.7936 12.3277 19.0051 13.0559C20.2166 13.7841 21.1987 15.5549 21.1987 17.0112Z" fill="var(--fill-0, #61003B)"/>
<path id="Vector_6" d="M28.3824 20.6048C28.3824 22.0611 27.4004 22.6513 26.1889 21.9233C24.9774 21.1951 23.9951 19.4243 23.9951 17.968C23.9951 16.5117 24.9774 15.9214 26.1889 16.6495C27.4004 17.3777 28.3824 19.1485 28.3824 20.6048Z" fill="var(--fill-0, #61003B)"/>
<path id="Vector_7" d="M11.8252 23.9784V5.85246C11.8252 4.90553 12.3602 4.03988 13.2072 3.61641L17.6482 1.39591C18.7039 0.868031 19.9465 0.868031 21.0023 1.39591L52.9433 17.3664C53.7903 17.7899 54.3253 18.6555 54.3253 19.6025V47.7624C54.3253 48.7094 53.7903 49.5749 52.9433 49.9984L48.4943 52.2229C47.443 52.7486 46.2063 52.7509 45.153 52.2291L26.3838 42.9331" stroke="var(--stroke-0, #61003B)" stroke-width="2"/>
<path id="Vector_8" d="M14.4675 53.5285C18.3356 53.2853 20.8683 50.4588 21.1828 45.7558L21.8249 36.1523L21.2126 35.7698C17.9712 33.746 14.8152 31.1235 11.8909 28.0253C11.6327 27.7518 11.2673 27.606 10.8915 27.6225C8.0279 27.7488 4.9968 27.4778 1.82495 26.224L0.961924 25.91" stroke="var(--stroke-0, #61003B)" stroke-width="2" stroke-miterlimit="10"/>
<path id="Vector_9" d="M1.00492 26.4196L1.55892 35.2631C1.88092 40.4033 4.49728 46.1616 8.4575 50.4463L11.0843 53.2883C11.3395 53.5643 11.7055 53.7108 12.0807 53.6873L14.5177 53.5341C15.5891 53.4668 16.5621 53.1913 17.4179 52.7301C24.391 48.9718 25.9377 47.7753 26.2597 42.9633L26.8172 34.6313C26.8787 33.7111 26.4257 32.8358 25.6577 32.3253C22.306 30.0976 19.246 27.5023 16.4928 24.5506C16.3902 24.4406 16.2438 24.3823 16.0936 24.3896C12.888 24.5481 9.77688 23.8338 6.78725 22.7448C6.12035 22.5018 5.382 22.5298 4.74695 22.8468L2.38355 24.0266C1.4851 24.4748 0.942149 25.4173 1.00492 26.4196Z" stroke="var(--stroke-0, #61003B)" stroke-width="2" stroke-miterlimit="10" stroke-linecap="square"/>
<path id="Vector_10" d="M21.8242 36.1624L26.4643 33.8601" stroke="var(--stroke-0, #61003B)" stroke-width="2"/>
<path id="Vector_11" d="M16.6371 24.8601L11.1836 27.5869" stroke="var(--stroke-0, #61003B)" stroke-width="2"/>
</g>
</svg>
