<svg preserveAspectRatio="none" width="100%" height="100%" overflow="visible" style="display: block;" viewBox="0 0 146.202 144.506" fill="none" xmlns="http://www.w3.org/2000/svg">
<g id="Group">
<path id="Vector" d="M14.9287 59.5234L1.62814 66.7341L13.8889 71.4328L29.9889 72.4308L56.7397 95.5901L54.1971 135.485L69.4861 120.855V88.6528L42.4488 64.9954L14.9287 59.5234Z" fill="var(--fill-0, #61003B)"/>
<path id="Vector_2" d="M124.203 140.819V57.4859L144.203 47.4859V130.819L124.203 140.819Z" fill="var(--fill-0, #61003B)"/>
<path id="Vector_3" d="M124.203 57.4859L144.203 47.4859" stroke="var(--stroke-0, #2A0015)" stroke-width="4"/>
<path id="Vector_4" d="M30.8688 10.8203L124.202 57.487V140.82" stroke="var(--stroke-0, #2A0015)" stroke-width="4"/>
<path id="Vector_5" d="M55.8648 44.6964C55.8648 48.5798 53.2459 50.154 50.0152 48.2122C46.7846 46.2704 44.1656 41.5482 44.1656 37.6647C44.1656 33.7812 46.7846 32.2071 50.0152 34.1489C53.2459 36.0906 55.8648 40.8129 55.8648 44.6964Z" fill="var(--fill-0, #2A0015)"/>
<path id="Vector_6" d="M75.0212 54.2792C75.0212 58.1626 72.4026 59.7364 69.1719 57.795C65.9412 55.8533 63.3219 51.131 63.3219 47.2475C63.3219 43.364 65.9412 41.79 69.1719 43.7317C72.4026 45.6734 75.0212 50.3957 75.0212 54.2792Z" fill="var(--fill-0, #2A0015)"/>
<path id="Vector_7" d="M30.8688 63.2757V14.9399C30.8688 12.4147 32.2954 10.1064 34.554 8.97708L46.3966 3.05575C49.2119 1.64808 52.5256 1.64808 55.3409 3.05575L140.517 45.6438C142.776 46.773 144.202 49.0814 144.202 51.6065V126.7C144.202 129.225 142.776 131.533 140.517 132.662L128.653 138.594C125.85 139.996 122.552 140.002 119.743 138.611L69.6916 113.822" stroke="var(--stroke-0, #2A0015)" stroke-width="4"/>
<path id="Vector_8" d="M37.9149 142.076C48.2299 141.427 54.9836 133.89 55.8223 121.349L57.5348 95.7392L55.9018 94.7192C47.258 89.3226 38.8422 82.3292 31.044 74.0672C30.3555 73.3379 29.381 72.9492 28.379 72.9932C20.7426 73.3299 12.6597 72.6072 4.20142 69.2639L1.90002 68.4266" stroke="var(--stroke-0, #2A0015)" stroke-width="4" stroke-miterlimit="10"/>
<path id="Vector_9" d="M2.01313 69.7856L3.49046 93.3682C4.34913 107.076 11.3261 122.431 21.8867 133.857L28.8915 141.436C29.5721 142.172 30.5479 142.562 31.5485 142.5L38.0473 142.091C40.9041 141.912 43.4988 141.177 45.781 139.947C64.3759 129.925 68.5006 126.734 69.3593 113.902L70.8459 91.6836C71.0099 89.2296 69.8019 86.8956 67.7539 85.5342C58.8159 79.5936 50.6559 72.6729 43.314 64.8016C43.0404 64.5082 42.6501 64.3529 42.2495 64.3722C33.7012 64.7949 25.405 62.8902 17.4327 59.9862C15.6543 59.3382 13.6853 59.4129 11.9919 60.2582L5.68946 63.4042C3.29359 64.5996 1.84573 67.1129 2.01313 69.7856Z" stroke="var(--stroke-0, #2A0015)" stroke-width="4" stroke-miterlimit="10" stroke-linecap="square"/>
<path id="Vector_10" d="M57.5344 95.7659L69.9079 89.6266" stroke="var(--stroke-0, #2A0015)" stroke-width="4"/>
<path id="Vector_11" d="M43.699 65.6266L29.1563 72.8979" stroke="var(--stroke-0, #2A0015)" stroke-width="4"/>
</g>
</svg>
