<svg width="60" height="60" viewBox="0 0 60 60" fill="none" xmlns="http://www.w3.org/2000/svg">
<path d="M4.29587 3.42595C2.75359 4.34968 2.75359 7.12143 4.29587 9.6168L9.00219 17.3696C9.72647 18.5627 11.2874 18.9317 12.4692 18.1892L16.3433 15.7553C17.8855 14.8315 17.8855 12.0598 16.3433 9.5644C14.801 7.06903 12.3005 5.79495 10.7582 6.71868C10.5947 6.81665 10.4484 6.9354 10.3196 7.0724C10.1907 6.80408 10.0445 6.53633 9.88092 6.27168C8.33864 3.77628 5.83814 2.5022 4.29587 3.42595Z" fill="black" fill-opacity="0.3"/>
<path d="M35.489 3.125L30.688 5.60228L36.071 7.77493L40.6422 11.1852L46.3017 21.8512L46.25 31.875L45 35.625L50.0875 33.496L52.345 28.6593V19.4074L48.5297 11.1852L42.33 4.52837L35.489 3.125Z" fill="black" fill-opacity="0.3"/>
<path d="M27.183 7.80163C22.5128 10.8817 22.3696 19.775 26.8632 27.6653L33.6787 39.6328C34.3937 40.8883 36.0215 41.2781 37.2275 40.4826L43.4557 36.3751C48.1257 33.2948 48.269 24.4017 43.7755 16.5113C39.2817 8.62098 31.853 4.72153 27.183 7.80163Z" stroke="black" stroke-width="2.5"/>
<path d="M40.9594 38.0131L49.3369 33.7223C54.0071 30.6423 54.0091 20.7789 49.5156 12.8887C45.0219 4.99838 38.0059 2.09329 32.9691 4.81048L27.5566 7.57188" stroke="black" stroke-width="2.5"/>
<path d="M30.1658 19.1679C30.278 16.5698 32.2073 15.4703 34.4748 16.7121C36.7423 17.9538 38.4895 21.0666 38.377 23.6647C38.2645 26.2629 36.3353 27.3624 34.0678 26.1204C31.8003 24.8787 30.0533 21.7659 30.1658 19.1679Z" fill="black"/>
<path d="M27.4998 28.125L2.23591 40.757C1.3146 41.2175 1.31459 42.5325 2.23591 42.993L28.3228 56.0365C29.3786 56.5643 30.6211 56.5643 31.6768 56.0365L57.7638 42.993C58.6851 42.5325 58.6851 41.2175 57.7638 40.757L46.2498 35" stroke="black" stroke-width="2.5"/>
<path d="M17.5 33.125L20 51.875" stroke="black" stroke-width="2.5"/>
<path d="M19.1094 45.5582L36.1867 40.8774" stroke="black" stroke-width="2.5"/>
<path d="M4.29587 3.42595C2.75359 4.34968 2.75359 7.12143 4.29587 9.6168L9.00219 17.3696C9.72647 18.5627 11.2874 18.9317 12.4692 18.1892L16.3433 15.7553C17.8855 14.8315 17.8855 12.0598 16.3433 9.5644C14.801 7.06903 12.3005 5.79495 10.7582 6.71868C10.5947 6.81665 10.4484 6.9354 10.3196 7.0724C10.1907 6.80408 10.0445 6.53633 9.88092 6.27168C8.33864 3.77628 5.83814 2.5022 4.29587 3.42595Z" stroke="black" stroke-width="2.5" stroke-linejoin="round"/>
</svg>
