<svg width="42" height="42" viewBox="0 0 42 42" fill="none" xmlns="http://www.w3.org/2000/svg">
<path d="M32.3506 11.312C32.9822 11.9427 32.9822 12.9654 32.3506 13.5961C31.719 14.2269 30.695 14.2269 30.0635 13.5961C27.928 11.4635 25.0868 10.2876 22.0675 10.2876C19.2 10.2876 16.4643 11.3597 14.3668 13.3096C12.6123 14.9399 11.4349 17.0528 10.9765 19.3633C10.4092 18.2567 9.44458 17.3888 8.28369 16.9425C9.04717 14.6732 10.3713 12.613 12.1654 10.9464C14.8648 8.43987 18.3804 7.05982 22.0675 7.05982C25.9509 7.05817 29.6034 8.56997 32.3506 11.312Z" fill="#171717"/>
<path d="M36.1596 9.78878C35.528 10.4195 34.5057 10.4195 33.8741 9.78878C30.7196 6.64003 26.5279 4.9059 22.0674 4.9059C17.8328 4.9059 13.7961 6.49016 10.6977 9.36884C8.54078 11.373 6.97589 13.8729 6.12007 16.6248C5.75235 17.8056 5.5149 19.0325 5.41925 20.2874C5.39617 20.5739 5.48852 20.8522 5.67485 21.0696C5.81831 21.2376 6.00465 21.3545 6.21407 21.4089C6.27838 21.4253 6.34269 21.4369 6.4103 21.4435C6.53562 21.4533 6.65764 21.4402 6.77142 21.4105C6.81595 21.4649 6.84563 21.534 6.85058 21.6065C6.92808 22.6226 7.10782 23.6173 7.3799 24.5807C7.14574 24.6301 6.90499 24.6614 6.65929 24.6696C6.60488 24.6729 6.55046 24.6729 6.4944 24.6729C6.38226 24.6729 6.27013 24.6696 6.15965 24.6597C5.01196 24.5725 3.96815 24.0422 3.21787 23.1693C2.46923 22.2965 2.1048 21.1849 2.19384 20.0371C2.22517 19.627 2.2697 19.2186 2.32741 18.8151C2.95567 14.2962 5.11749 10.1396 8.49296 7.00398C12.1916 3.56867 17.0116 1.6748 22.0657 1.6748C27.3887 1.6748 32.395 3.74488 36.1579 7.50461C36.7912 8.137 36.7912 9.15804 36.1596 9.78878Z" fill="#171717"/>
<path d="M6.21423 20.5941C6.15487 20.5217 6.12848 20.436 6.13673 20.3405C6.21423 19.3244 6.39067 18.3149 6.66276 17.3301C7.11458 17.3465 7.55321 17.4355 7.96215 17.5853L8.02647 17.61C8.0578 17.6216 8.08912 17.6347 8.12046 17.6463C8.15179 17.6594 8.18312 17.6726 8.2128 17.6858C8.27381 17.7121 8.33482 17.7401 8.39419 17.7698C8.42387 17.7846 8.45355 17.7994 8.48323 17.8142C8.54095 17.8455 8.59866 17.8768 8.65473 17.9098C8.93176 18.0695 9.18735 18.2605 9.42151 18.4763C9.44624 18.4993 9.46933 18.5207 9.49406 18.5438C9.5188 18.5669 9.54188 18.5899 9.56332 18.613C9.58475 18.636 9.60619 18.6574 9.62763 18.6788C9.82221 18.883 9.99535 19.107 10.1471 19.3458C10.1619 19.3705 10.1784 19.3952 10.1932 19.4216C10.2559 19.5237 10.312 19.6291 10.3664 19.7378C10.6022 20.2153 10.7522 20.7407 10.7951 21.299C11.0128 24.1249 12.2825 26.7483 14.3701 28.6883C16.4676 30.6365 19.2033 31.7103 22.0709 31.7103C25.0918 31.7103 27.9313 30.5361 30.0668 28.4018C30.6983 27.771 31.7223 27.771 32.3539 28.4018C32.9855 29.0325 32.9855 30.0536 32.3539 30.6843C29.6067 33.4279 25.9559 34.9381 22.0709 34.9381C18.3821 34.9381 14.8664 33.558 12.1687 31.0515C10.1982 29.2203 8.79489 26.9147 8.07759 24.3802C8.04625 24.2715 8.01657 24.1612 7.98854 24.0525C7.97864 24.0146 7.9704 23.9767 7.9605 23.9388C7.92258 23.7824 7.88465 23.6259 7.85167 23.4695C7.84178 23.4234 7.83189 23.3773 7.82364 23.3312C7.8121 23.2785 7.8022 23.2258 7.79231 23.1731C7.75108 22.9606 7.71481 22.7465 7.68348 22.5308C7.67688 22.4847 7.67029 22.4386 7.66534 22.3941C7.65545 22.3216 7.64555 22.2508 7.6373 22.18C7.62576 22.0894 7.61587 21.9989 7.60597 21.9066C7.59278 21.7864 7.58289 21.6662 7.573 21.546C7.57135 21.5196 7.56805 21.4949 7.56475 21.4702V21.4669C7.56145 21.4422 7.5565 21.4175 7.54991 21.3928C7.54496 21.3714 7.54001 21.35 7.53342 21.3303C7.53012 21.3204 7.52847 21.3105 7.52517 21.3023C7.51858 21.2775 7.50868 21.2529 7.49879 21.2298C7.49055 21.2067 7.48065 21.1853 7.47076 21.1623C7.45921 21.1376 7.44602 21.1145 7.43283 21.0915C7.42129 21.07 7.40809 21.0486 7.39325 21.0272C7.38996 21.0223 7.38831 21.019 7.38501 21.0141C7.37182 20.9943 7.35698 20.9762 7.34214 20.9564C7.33884 20.9515 7.33554 20.9482 7.33224 20.9432C7.21846 20.8049 7.0717 20.6962 6.90351 20.6287C6.77983 20.5793 6.64462 20.5513 6.50445 20.5513C6.47642 20.5513 6.44674 20.5529 6.41871 20.5546C6.3445 20.5645 6.27854 20.576 6.21423 20.5941Z" fill="#171717"/>
<path d="M36.1598 34.4943C32.3969 38.254 27.3905 40.3241 22.0676 40.3241C17.0135 40.3241 12.1935 38.4319 8.49484 34.9949C5.11937 31.8577 2.9559 27.7011 2.32764 23.1821C2.43482 23.3386 2.55025 23.4901 2.67557 23.635C3.54954 24.6544 4.76814 25.2703 6.10381 25.3724C6.10876 25.3724 6.11371 25.3741 6.11865 25.3741C6.97283 28.1259 8.53936 30.6258 10.6962 32.63C13.7947 35.5087 17.833 37.0946 22.066 37.0946C26.5265 37.0946 30.7182 35.3605 33.8727 32.2101C34.5043 31.5794 35.5266 31.5794 36.1582 32.2101C36.7914 32.8425 36.7914 33.8635 36.1598 34.4943Z" fill="#171717"/>
</svg>
