<svg width="200" height="80" viewBox="0 0 200 80" fill="none" xmlns="http://www.w3.org/2000/svg">
<path d="M72.664 28.384C72.6413 28.384 72.6195 28.3927 72.6031 28.4084C72.5868 28.424 72.577 28.4454 72.576 28.468C72.576 30.052 71.296 31.336 69.724 31.336C69.7126 31.336 69.7014 31.3383 69.6909 31.3428C69.6804 31.3473 69.671 31.3538 69.6631 31.362C69.6553 31.3703 69.6492 31.38 69.6452 31.3907C69.6412 31.4013 69.6395 31.4127 69.64 31.424C69.64 31.472 69.68 31.508 69.724 31.508C71.3 31.508 72.576 32.796 72.576 34.38C72.576 34.428 72.616 34.464 72.664 34.464C72.708 34.464 72.748 34.424 72.748 34.38C72.7501 33.6235 73.051 32.8985 73.5852 32.3629C74.1193 31.8272 74.8435 31.5243 75.6 31.52C75.6228 31.52 75.6447 31.511 75.6608 31.4948C75.6769 31.4787 75.686 31.4568 75.686 31.434C75.686 31.4112 75.6769 31.3894 75.6608 31.3732C75.6447 31.3571 75.6228 31.348 75.6 31.348C74.8411 31.3449 74.1145 31.0406 73.5798 30.5021C73.045 29.9636 72.7459 29.2349 72.748 28.476V28.468C72.7482 28.4569 72.7461 28.4459 72.742 28.4356C72.7379 28.4253 72.7318 28.416 72.724 28.408C72.7078 28.3927 72.6863 28.3841 72.664 28.384ZM57.892 30.488L52 45.848H53.92L55.34 42.16H62.468L63.884 45.848H65.808L59.92 30.488H57.892ZM66.948 30.496V45.848H68.912V30.496H66.948ZM76.448 30.496V45.848H86.1V43.84H78.452V39.08H84.76V37.172H78.452V32.508H85.544V30.5L76.448 30.496ZM58.904 32.864L61.696 40.144H56.112L58.904 32.864ZM117.66 34.472C116.237 34.475 114.864 34.9954 113.796 35.936V34.8H111.832V45.852H113.792C113.8 43.944 113.792 42.032 113.8 40.12C113.852 39.1306 114.281 38.1987 114.999 37.5157C115.717 36.8328 116.669 36.4508 117.66 36.448V34.472ZM134.38 34.5C134.168 34.5 133.96 34.512 133.748 34.54C132.488 34.664 131.324 35.24 130.736 36.048C130.33 36.5795 130.131 37.2406 130.176 37.908C130.204 38.708 130.44 39.336 131.108 39.892C131.844 40.48 132.788 40.692 133.736 40.928C134.98 41.196 135.44 41.308 135.92 41.672C136.24 41.952 136.452 42.18 136.464 42.752C136.464 43.752 135.58 44.24 134.784 44.392C134.119 44.5275 133.429 44.47 132.795 44.2262C132.161 43.9824 131.611 43.5625 131.208 43.016L129.724 44.168C131.044 45.696 132.832 46.188 134.084 46.168C136.244 46.128 137.648 45.3 138.2 44.032C138.464 43.42 138.452 42.796 138.452 42.512C138.456 42.0906 138.361 41.6741 138.176 41.2957C137.991 40.9172 137.719 40.5872 137.384 40.332C136.472 39.624 135.052 39.42 134.84 39.364C133.092 39.052 132.208 38.58 132.052 38C131.88 37.232 132.46 36.6 133.24 36.356C133.855 36.1512 134.519 36.1482 135.136 36.3475C135.752 36.5469 136.289 36.9381 136.668 37.464L138.136 36.476C137.711 35.8731 137.149 35.3796 136.496 35.0361C135.843 34.6926 135.118 34.5089 134.38 34.5ZM143.928 34.5C143.72 34.5 143.508 34.512 143.3 34.54C142.036 34.664 140.872 35.24 140.288 36.048C139.882 36.5795 139.683 37.2406 139.728 37.908C139.752 38.708 139.988 39.336 140.66 39.892C141.392 40.48 142.34 40.692 143.288 40.928C144.528 41.196 144.992 41.308 145.468 41.672C145.792 41.952 146.004 42.18 146.012 42.752C146.016 43.752 145.128 44.24 144.332 44.392C143.667 44.5275 142.977 44.47 142.343 44.2262C141.709 43.9824 141.159 43.5625 140.756 43.016L139.272 44.168C140.592 45.696 142.38 46.188 143.632 46.168C145.796 46.128 147.196 45.3 147.752 44.032C148.012 43.42 148 42.796 148 42.512C148.004 42.0906 147.909 41.6741 147.724 41.2957C147.539 40.9172 147.267 40.5872 146.932 40.332C146.024 39.624 144.6 39.42 144.388 39.364C142.64 39.052 141.756 38.58 141.604 38C141.432 37.232 142.008 36.6 142.792 36.356C143.407 36.1512 144.071 36.1482 144.688 36.3475C145.304 36.5469 145.841 36.9381 146.22 37.464L147.688 36.476C147.262 35.8728 146.699 35.3791 146.046 35.0356C145.392 34.6921 144.666 34.5085 143.928 34.5ZM104.568 34.508C103.257 34.508 101.985 34.9485 100.955 35.7588C99.9244 36.5691 99.1966 37.7022 98.888 38.976C98.7783 39.4034 98.7232 39.8429 98.724 40.284V51.616H100.688V44.364C101.368 45.084 102.636 46.044 104.528 46.18C105.477 46.1903 106.415 45.967 107.257 45.5296C108.1 45.0922 108.822 44.4543 109.36 43.672C109.972 42.7972 110.332 41.771 110.4 40.7056C110.468 39.6402 110.243 38.5765 109.748 37.6305C109.253 36.6846 108.508 35.8927 107.594 35.3414C106.68 34.79 105.632 34.5004 104.564 34.504L104.568 34.508ZM123.784 34.508C122.808 34.518 121.85 34.7746 120.999 35.2541C120.148 35.7335 119.433 36.4203 118.919 37.2504C118.405 38.0806 118.109 39.0272 118.059 40.0024C118.009 40.9775 118.206 41.9495 118.632 42.828C119.652 44.948 121.876 46.308 124.28 46.16C125.057 46.1087 125.816 45.9017 126.511 45.5513C127.207 45.2008 127.824 44.7141 128.328 44.12L126.876 42.956C126.349 43.5824 125.637 44.0255 124.842 44.2217C124.047 44.4179 123.21 44.3571 122.452 44.048C121.862 43.8102 121.336 43.4362 120.917 42.9566C120.499 42.477 120.2 41.9052 120.044 41.288H129L129.008 39.58C128.98 38.2174 128.415 36.9208 127.437 35.9714C126.46 35.0219 125.147 34.4962 123.784 34.508ZM86.984 34.828L91.232 40.336L86.984 45.848H89.308L92.424 41.808L95.536 45.848H97.86L93.612 40.336L97.86 34.824H95.536L92.424 38.864L89.308 34.824L86.984 34.828ZM71.684 34.888V45.848H73.644V34.888H71.684ZM104.616 36.368C105.128 36.3731 105.634 36.4805 106.104 36.6841C106.574 36.8876 106.999 37.1832 107.353 37.5533C107.707 37.9234 107.984 38.3607 108.166 38.8392C108.349 39.3178 108.434 39.8281 108.416 40.34C108.457 41.3198 108.122 42.2783 107.481 43.0201C106.84 43.7619 105.939 44.2311 104.964 44.332C104.033 44.4264 103.1 44.1784 102.338 43.6343C101.577 43.0902 101.04 42.2874 100.828 41.376C100.532 39.848 100.828 38.392 102.056 37.3C102.767 36.6866 103.677 36.355 104.616 36.368ZM123.776 36.428C124.601 36.4292 125.396 36.7403 126.003 37.2996C126.609 37.8589 126.984 38.6257 127.052 39.448H120.012C120.202 38.5922 120.678 37.8267 121.362 37.2777C122.045 36.7287 122.899 36.429 123.776 36.428Z" fill="black"/>
</svg>
