<svg width="200" height="80" viewBox="0 0 200 80" fill="none" xmlns="http://www.w3.org/2000/svg">
<path fill-rule="evenodd" clip-rule="evenodd" d="M63.2807 42.1615V49.8988C63.2807 50.4942 62.7958 50.9778 62.1988 50.9778H46.0639C45.4295 50.9778 44.9306 50.4348 44.9867 49.8044L46.2112 35.8504C46.2602 35.2934 46.7276 34.8658 47.2884 34.8658H55.9657C55.753 34.3321 55.6362 33.7495 55.6362 33.1401C55.6362 32.5306 55.753 31.948 55.9657 31.4143H47.0897C44.8465 31.4143 42.9748 33.1249 42.7785 35.354L41.5167 49.7391C41.2959 52.2619 43.2891 54.4316 45.8279 54.4316H62.415C64.8042 54.4316 66.7425 52.4996 66.7425 50.1155V42.1615C66.2074 42.3736 65.6232 42.4901 65.0122 42.4901C64.4012 42.4901 63.8158 42.3736 63.2807 42.1615Z" fill="black"/>
<path fill-rule="evenodd" clip-rule="evenodd" d="M70.3364 30.776H68.8257C68.0308 30.776 67.3862 30.1369 67.3862 29.3487V27.851C67.3862 26.5902 66.3558 25.5686 65.0841 25.5686C63.8124 25.5686 62.782 26.5902 62.782 27.851V29.3487C62.782 30.1369 62.1374 30.776 61.3425 30.776H59.8319C58.5602 30.776 57.5298 31.7976 57.5298 33.0584C57.5298 34.3192 58.5602 35.3408 59.8319 35.3408H61.3425C62.1374 35.3408 62.782 35.9798 62.782 36.768V38.2657C62.782 39.5265 63.8124 40.5481 65.0841 40.5481C66.3558 40.5481 67.3862 39.5265 67.3862 38.2657V36.768C67.3862 35.9798 68.0308 35.3408 68.8257 35.3408H70.3364C71.608 35.3408 72.6384 34.3192 72.6384 33.0584C72.6384 31.7976 71.608 30.776 70.3364 30.776Z" fill="black"/>
<path fill-rule="evenodd" clip-rule="evenodd" d="M154.98 41.1465C153.735 40.4647 152.74 39.9069 152.74 38.9467C152.74 38.048 153.425 37.1806 154.919 37.1806C155.883 37.1806 156.941 37.6143 157.315 37.9239L158 35.6939C157.751 35.477 156.413 34.7024 154.732 34.7024C151.9 34.7024 149.877 36.0963 149.877 38.7913C149.877 41.0526 151.216 42.2609 152.741 43.0043C154.391 43.8091 155.698 44.4596 155.698 45.6378C155.698 46.9703 154.577 47.7136 153.146 47.7136C152.026 47.7136 150.781 47.063 150.221 46.6293L149.288 49.3556C150.688 50.1917 151.653 50.5953 153.334 50.5953C156.416 50.5953 158.5 48.5195 158.5 45.7631C158.498 43.191 156.723 42.1067 154.98 41.1465Z" fill="black"/>
<path d="M119.154 34.8853H117.926H115.89H115.017V50.5955H117.926V45.2626H119.156C122.648 45.2626 124.782 43.3725 124.782 40.0745C124.781 36.7753 122.646 34.8853 119.154 34.8853ZM119.154 42.3802H117.926V37.7677H119.156C120.643 37.7677 121.548 38.5685 121.548 40.0734C121.547 41.5794 120.642 42.3802 119.154 42.3802Z" fill="black"/>
<path fill-rule="evenodd" clip-rule="evenodd" d="M129.874 34.8853H126.993V50.5955H128.018H129.874H135.285V47.8567H129.874V34.8853Z" fill="black"/>
<path fill-rule="evenodd" clip-rule="evenodd" d="M108.63 44.4466L103.821 34.8853H100.645V50.5955H103.532V41.0353L108.341 50.5955H111.516V34.8853H108.63V44.4466Z" fill="black"/>
<path fill-rule="evenodd" clip-rule="evenodd" d="M94.2472 45.6561C94.2472 47.1329 93.3132 48.0316 91.8008 48.0316C90.2884 48.0316 89.3545 47.1329 89.3545 45.6561V34.8853H86.4575V45.1915C86.4575 48.6589 88.485 50.7782 91.8008 50.7782C95.1166 50.7782 97.1441 48.6589 97.1441 45.1915V34.8853H94.2472V45.6561Z" fill="black"/>
<path fill-rule="evenodd" clip-rule="evenodd" d="M144.548 45.6561C144.548 47.1329 143.614 48.0316 142.102 48.0316C140.589 48.0316 139.655 47.1329 139.655 45.6561V34.8853H136.758V45.1915C136.758 48.6589 138.786 50.7782 142.102 50.7782C145.417 50.7782 147.445 48.6589 147.445 45.1915V34.8853H144.548V45.6561Z" fill="black"/>
<path fill-rule="evenodd" clip-rule="evenodd" d="M76.2067 34.8853H75.4023V50.5955H78.2974V44.1022H83.2515V41.3634H78.2974V38.1284H83.5094V34.8853H78.2974H76.2067Z" fill="black"/>
</svg>
