<svg width="200" height="80" viewBox="0 0 200 80" fill="none" xmlns="http://www.w3.org/2000/svg">
<g clip-path="url(#clip0_39515_9723)">
<path d="M72.3076 28.9612C78.4287 28.353 81.1944 35.0659 79.3293 40.0972C77.3382 45.4679 72.571 48.6836 67.1102 49.8317C63.0014 50.6955 59.6967 50.2897 55.8065 48.8803C51.8815 47.1727 48.2158 44.5618 47.7255 39.9101C47.306 35.9297 49.828 32.6195 54.0161 32.7857C55.0046 32.8249 55.9195 33.105 56.9014 33.2836C58.7023 33.6111 60.6457 33.7815 62.4258 33.2353C65.4288 32.2656 67.7116 29.8601 70.8413 29.1239C71.2265 29.0333 71.8976 28.9934 72.3076 28.9612Z" fill="#1F1E1F"/>
<path d="M61.8635 34.9924C66.9824 34.641 69.8117 39.7781 66.6622 43.8432C64.7366 46.3286 61.2712 47.5583 58.2405 47.936C56.7633 48.0809 54.5885 48.05 53.4109 47.1203C51.0694 45.2716 52.3705 41.6419 53.8612 39.7704C55.8686 37.2506 58.6953 35.4256 61.8635 34.9924Z" fill="white"/>
<path d="M97.6132 34.2636C100.95 34.0341 103.843 36.5462 104.085 39.8818C104.326 43.2174 101.824 46.12 98.4893 46.3732C95.138 46.6277 92.2177 44.1105 91.9751 40.7581C91.7325 37.4057 94.26 34.4942 97.6132 34.2636Z" fill="#1F1E1F"/>
<path d="M97.7004 37.1731C100.635 36.8686 100.956 41.4738 99.3221 43.0141C99.0509 43.2696 98.8655 43.3118 98.5187 43.4006C95.6767 43.8324 95.5318 40.375 96.1579 38.4562C96.3726 37.7983 97.0847 37.4049 97.7004 37.1731Z" fill="white"/>
<path d="M119.701 34.198C119.837 34.189 119.972 34.1822 120.108 34.1777C122.604 34.0968 126.808 36.3445 124.24 38.9717C121.422 39.3968 122.571 37.7812 120.786 37.2099C117.69 36.2195 117.037 42.5166 119.52 43.363C121.387 43.9995 121.619 42.4148 122.778 41.5871C123.113 41.3479 123.658 41.4535 124.03 41.5663C125.406 42.2539 125.254 43.5812 124.407 44.6247C123.072 46.2673 121.159 46.5394 119.162 46.3065C116.576 46.005 114.786 43.9412 114.455 41.4241C114.014 37.7689 115.818 34.613 119.701 34.198Z" fill="#1F1E1F"/>
<path d="M109.201 38.4558C109.567 37.4927 110.08 36.3779 110.583 35.4784C111.41 34.002 112.464 34.134 113.692 34.8902C113.929 35.3232 114.029 35.6078 114.157 36.0805C113.931 37.0887 112.048 40.0237 111.435 41.1572C111.287 41.4147 111.123 41.6802 110.969 41.936C110.952 42.4803 110.923 43.5818 110.98 44.159C111.231 46.1077 109.134 46.9835 107.815 45.7496C107.095 45.0765 107.348 42.8021 107.357 41.8625C106.853 41.0755 104.449 37.0506 104.313 36.3125C104.237 35.8861 104.336 35.4468 104.589 35.0947C104.94 34.6121 105.441 34.4032 106.01 34.3164C107.784 34.3224 108.478 37.0562 109.201 38.4558Z" fill="#1F1E1F"/>
<path d="M132.204 34.5038C132.58 34.4791 132.967 34.477 133.347 34.4821C135.668 34.5134 138.01 34.4004 140.324 34.5364C140.689 34.5578 141.007 34.7366 141.311 34.9223C142.025 36.4887 141.563 37.5478 139.731 37.5842C139.18 37.5952 138.618 37.5858 138.065 37.5915C138.013 39.7187 138.055 42.0338 138.055 44.1751C137.992 46.164 136.898 46.5758 135.167 46.0812L135.152 46.0665C134.055 44.9618 134.36 43.6165 134.362 42.1527L134.366 37.577C133.183 37.5891 131.113 37.9302 130.796 36.3709C130.717 35.9694 130.802 35.5534 131.029 35.2136C131.349 34.7353 131.673 34.6063 132.204 34.5038Z" fill="#1F1E1F"/>
<path d="M147.211 38.3893C147.701 37.5247 148.092 36.5012 148.556 35.6093C148.835 35.0515 149.269 34.5554 149.878 34.3601C150.676 34.0981 151.837 34.6869 152.054 35.5093C152.231 36.1766 151.96 36.8947 151.605 37.4574C150.827 38.6933 150.154 39.9882 149.409 41.2444C148.55 42.6938 149.641 44.42 148.574 45.7677C148.043 46.4711 146.528 46.4477 145.946 45.8452C145.212 45.084 145.45 42.9336 145.436 41.919C144.636 40.5493 143.871 39.1005 143.043 37.7537C142.114 36.2426 141.951 34.8565 143.974 34.3137C144.992 34.22 145.634 34.9315 146.016 35.775C146.399 36.62 146.915 37.5161 147.211 38.3893Z" fill="#1F1E1F"/>
<path d="M88.7611 34.3105C89.7206 34.2273 90.6995 34.8903 90.7477 35.8514C90.8536 37.9666 90.7797 40.242 90.7853 42.3586C90.7929 45.1669 88.8683 46.5441 86.1928 46.3705C84.8015 46.2803 83.9356 46.1332 82.942 45.0682C82.1989 44.168 81.8098 42.3584 82.6127 41.3753C83.1412 40.7282 84.0896 40.4584 84.7738 41.0569C85.4671 41.6634 85.3851 42.3538 85.4583 43.1887C87.1884 44.2649 87.1093 42.0576 87.0873 41.0262C87.0978 39.6133 87.0488 38.1964 87.0713 36.7838C87.0934 35.4015 87.3248 34.6358 88.7611 34.3105Z" fill="#1F1E1F"/>
<path d="M127.967 34.31C129.195 34.2242 129.963 35.1811 129.965 36.3551C129.972 38.4203 130.004 40.4901 129.978 42.5554C129.957 44.1222 130.249 44.8608 129.152 46.0844C128.947 46.1547 128.566 46.2429 128.343 46.301C127.097 46.456 126.352 45.6459 126.326 44.4331C126.276 42.2941 126.311 40.1494 126.304 38.0091C126.299 36.8732 126.206 36.0253 126.661 34.9552C127.1 34.58 127.417 34.4248 127.967 34.31Z" fill="#1F1E1F"/>
</g>
<defs>
<clipPath id="clip0_39515_9723">
<rect width="107" height="47" fill="white" transform="translate(46.5 16.5)"/>
</clipPath>
</defs>
</svg>
