<svg width="200" height="80" viewBox="0 0 200 80" fill="none" xmlns="http://www.w3.org/2000/svg">
<g clip-path="url(#clip0_39515_9711)">
<path d="M90.2819 33.8407C93.7048 33.5382 96.7254 36.0642 97.0294 39.4835C97.3334 42.9028 94.8058 45.9211 91.3831 46.226C87.9587 46.531 84.9354 44.0046 84.6312 40.5836C84.3271 37.1626 86.8573 34.1434 90.2819 33.8407ZM91.615 43.7147C93.6703 43.2864 94.9818 41.2663 94.535 39.217C94.0882 37.1678 92.0545 35.8754 90.0071 36.3398C87.985 36.7984 86.7109 38.7993 87.1521 40.8233C87.5934 42.8472 89.5852 44.1377 91.615 43.7147Z" fill="#121212"/>
<path d="M142.343 33.8331C145.783 33.5453 148.8 36.1097 149.067 39.548C149.333 42.9863 146.747 45.9844 143.304 46.2293C139.891 46.4722 136.922 43.9166 136.658 40.5085C136.393 37.1003 138.933 34.1183 142.343 33.8331ZM143.662 43.7165C145.714 43.2886 147.025 41.2714 146.58 39.2239C146.136 37.1764 144.106 35.8832 142.06 36.3436C140.037 36.7989 138.76 38.7989 139.2 40.8235C139.639 42.8482 141.631 44.1398 143.662 43.7165Z" fill="#121212"/>
<path d="M104.655 33.8444C108.072 33.5411 111.089 36.0574 111.401 39.4697C111.713 42.8819 109.201 45.9025 105.786 46.2222C102.36 46.5431 99.3229 44.0236 99.01 40.5997C98.6972 37.1758 101.227 34.1487 104.655 33.8444ZM105.958 43.7188C108.017 43.3051 109.343 41.2931 108.91 39.2401C108.477 37.1869 106.451 35.881 104.399 36.333C102.375 36.7791 101.089 38.7711 101.516 40.7972C101.944 42.8234 103.926 44.127 105.958 43.7188Z" fill="#121212"/>
<path d="M75.3094 41.3131C75.3792 41.2348 75.5299 41.0702 75.5786 40.9836C76.7401 38.9208 77.7159 36.7572 78.8386 34.6721C79.0337 34.3098 79.412 33.4488 79.7147 33.2225C79.8028 33.2131 79.8771 33.1863 79.9309 33.2579C80.4383 33.9339 80.667 35.6223 80.8307 36.4115L81.5933 39.9449L82.4092 43.5541C82.5051 43.9902 82.9444 45.6682 82.7255 45.9369C82.2356 46.0646 81.0401 46.0134 80.4986 46.0045C80.1658 45.3491 79.6614 42.8481 79.4632 41.9786C79.2131 41.3387 79.1933 40.6945 78.9554 40.0132C78.4823 40.782 78.0396 41.9299 77.5959 42.643C77.1165 43.4133 75.9237 46.1134 75.3296 46.3769C74.5396 46.2145 72.429 40.5782 71.7678 40.069L71.6644 40.0864C71.5396 40.3352 71.3697 41.494 71.2579 41.8991C70.893 43.2211 70.5707 44.5804 70.1745 45.8939C69.6591 45.9275 68.1996 46.0676 67.8458 45.7654C67.6976 45.0209 70.3414 35.0163 70.6329 33.397C70.7892 33.2165 70.7992 33.2604 71.0657 33.1982C71.45 33.3105 72.0114 34.6869 72.2063 35.0755L73.6779 38.0203C74.2792 39.245 74.7684 40.0114 75.3094 41.3131Z" fill="#121212"/>
<path d="M122.506 34.0665C122.906 34.0518 123.855 33.98 124.152 34.2182C124.256 34.533 124.322 45.7466 124.193 46.2716C124.023 46.3684 123.885 46.4273 123.707 46.2988C123.16 45.9022 122.696 45.3595 122.219 44.8844C120.901 43.5804 119.593 42.2657 118.296 40.9405C117.715 40.3571 116.752 39.2698 116.12 38.8844C116.183 40.186 116.145 41.6126 116.156 42.9243C116.162 43.5934 116.19 44.9794 116.105 45.5722C116.048 45.719 115.96 45.9037 115.786 45.9142C115.323 45.9421 114.142 46.0337 113.757 45.7821C113.555 45.197 113.624 36.816 113.673 35.5837C113.964 35.2148 114.607 34.4874 115.092 34.4173C115.571 34.4703 121.017 40.1485 121.798 40.937C121.957 39.5912 121.764 37.404 121.836 35.9938C121.861 35.4835 121.778 34.695 121.914 34.2167C122.051 34.0882 122.313 34.0873 122.506 34.0665Z" fill="#121212"/>
<path d="M159.868 34.067C162.26 33.9972 161.727 34.1178 161.725 36.2256L161.721 43.9748C161.719 44.5518 161.959 46.0826 161.505 46.3709C161.284 46.3648 161.032 46.2299 160.876 46.0809C158.936 44.236 157.121 42.2623 155.217 40.3807C154.821 39.9887 154.206 39.2512 153.771 38.9648L153.711 39.0091C153.642 39.3216 153.662 40.6378 153.666 41.0378C153.68 42.5312 153.617 44.1253 153.705 45.6101C153.323 46.1704 151.883 45.9354 151.304 45.8613C151.194 45.1387 151.219 42.3005 151.241 41.3671C151.283 39.6031 151.146 37.1006 151.281 35.424C151.482 35.1749 152.27 34.2359 152.644 34.426C153.495 34.858 158.983 40.8659 159.311 40.9156C159.38 40.6874 159.342 39.8779 159.34 39.5955L159.332 36.3649C159.331 35.8099 159.299 34.7195 159.408 34.2253C159.57 34.064 159.608 34.1039 159.868 34.067Z" fill="#121212"/>
<path d="M49.9709 51.8894C49.5914 51.8151 48.9515 51.7946 48.4932 51.741C46.9545 51.5612 45.9048 51.1915 44.4987 50.4702C43.3805 49.8964 41.1413 48.2506 40.5875 47.1133C40.5452 47.0263 40.5715 46.8322 40.6345 46.7515C41.6102 45.5428 43.115 44.6038 44.5444 44.0154C45.0617 43.8024 45.3926 44.3525 45.761 44.7112C46.8573 45.7787 48.0326 46.5198 49.5044 46.957C49.9278 47.0828 51.0253 47.2297 51.1481 47.6301C51.0839 48.011 51.0093 48.4111 50.9531 48.7912C50.9073 49.7255 50.4016 51.0579 49.9709 51.8894Z" fill="#121212"/>
<path d="M55.7693 31.73C56.2151 31.8435 57.3306 32.8231 57.6829 33.1695C60.2546 35.6979 60.5335 40.5955 57.8746 43.1778C55.0621 45.9092 49.1235 44.9001 49.2189 40.3075C49.416 38.2942 50.6872 37.0409 52.8031 37.2677C52.9884 37.2876 53.3288 37.445 53.4377 37.5991C53.4039 37.9402 52.6529 38.1745 52.4833 38.4472C51.904 39.3786 52.3759 40.4968 53.1275 41.1035C54.5325 42.2932 56.4818 41.5678 57.5248 40.2272C59.5882 37.5752 58.0629 33.6751 55.7693 31.73Z" fill="#121212"/>
<path d="M126.339 34.0784C127.451 33.9911 135.36 33.9646 136.01 34.1864C136.127 34.2264 136.139 34.2318 136.194 34.3417C136.187 34.7732 135.611 35.8394 135.407 36.3124C134.321 36.3595 133.131 36.3269 132.025 36.3519C131.982 38.2462 132.019 40.3295 132.018 42.2368C132.021 42.8296 132.136 45.5038 131.852 45.8284C131.294 46.0648 130.264 45.9245 129.644 45.8519C129.508 42.8965 129.646 39.3677 129.608 36.3409C128.939 36.3184 126.555 36.4182 126.097 36.2383C125.89 36.0412 125.911 35.485 125.924 35.2018C125.945 34.7286 125.81 34.2548 126.339 34.0784Z" fill="#121212"/>
<path d="M40.0886 36.7284C41.2056 36.696 42.2077 36.6651 43.3257 36.7461C42.9645 38.8617 43.315 41.7499 44.776 43.4134C44.6619 43.668 44.2297 43.83 43.9845 43.952C43.2644 44.3103 42.5098 44.708 41.8683 45.1959L40.1929 46.6487C38.3133 43.4666 37.8332 40.7868 38.5084 37.119C38.8846 36.9842 39.7034 36.7996 40.0886 36.7284Z" fill="#121212"/>
<path d="M51.1355 31.0445C51.9263 30.8256 53.7001 31.2371 54.4698 31.68C56.7791 33.0087 58.2668 36.3751 57.1874 38.911C57.0438 39.2484 56.5475 39.9085 56.3266 40.2931C56.3225 40.1276 56.3984 39.661 56.4208 39.4722C56.5385 38.4821 56.5783 37.6808 56.248 36.7247C55.8078 35.4587 54.8877 34.4158 53.6855 33.8208C52.2129 33.1081 50.5108 33.2142 49.0001 33.7405C46.762 34.649 45.5849 36.2645 45.2576 38.6602C45.1128 39.7203 45.3239 40.7551 45.4456 41.8065C45.1994 41.1309 44.9306 40.4313 44.8747 39.7124C44.8437 39.3127 44.8928 38.8502 44.8376 38.4685C44.7772 38.6199 44.8915 39.2545 44.7391 39.4742C44.7255 39.4407 44.7117 39.4014 44.7082 39.3658C44.3532 35.8127 46.2525 32.0691 49.939 31.2308C50.3299 31.1419 50.7282 31.0938 51.1355 31.0445Z" fill="#121212"/>
<path d="M53.1995 45.8329C52.9937 45.8672 52.7308 45.9017 52.5246 45.9154C50.9302 46.0243 49.3576 45.4967 48.1521 44.4486C47.1381 43.5631 46.6437 42.395 46.365 41.0576C45.3437 36.1568 50.3625 32.3962 54.4929 35.4504C55.0249 35.8439 55.7829 37.1562 55.8216 37.8258C55.6105 37.8954 55.3995 37.6061 55.2518 37.4612C52.5659 34.8351 48.1434 36.7699 48.0402 40.4744C47.9551 43.5301 50.7874 45.3978 53.603 45.4137L53.659 45.5324C53.5054 45.7302 53.4378 45.557 53.1995 45.8329Z" fill="#121212"/>
<path d="M58.2759 45.1897C58.8527 46.5859 58.5865 46.7106 58.8854 47.929C56.5376 50.5114 53.8071 51.688 50.3467 51.8546C50.7383 50.9842 51.1535 50.027 51.241 49.0607C51.2829 48.7291 51.3247 48.5198 51.4034 48.1946C51.428 47.9648 51.4622 47.7124 51.4544 47.4833C54.2333 47.532 56.0634 46.8148 58.2759 45.1897Z" fill="#121212"/>
<path d="M43.4198 30.102C44.1162 30.0755 46.0302 30.841 46.7 31.125C44.7682 32.9204 44.1588 33.8156 43.3609 36.382C42.8809 36.421 42.0578 36.3834 41.5511 36.3724C41.135 36.3811 40.7387 36.3859 40.3236 36.4299C39.872 36.4777 39.1895 36.672 38.7606 36.6448L38.7222 36.5243C39.0877 34.741 40.6458 32.4746 41.9829 31.2828C42.4561 30.861 42.9677 30.5204 43.4198 30.102Z" fill="#121212"/>
<path d="M60.837 35.2202L60.9265 35.2886C61.7263 37.6307 62.1668 39.2377 61.8487 41.761C61.6337 43.4661 60.4841 46.5164 59.1329 47.5431L59.0108 47.5604C58.9651 47.4871 58.9611 47.419 58.9703 47.3347C59.062 46.4959 58.8269 45.6915 58.5938 44.8938C58.9423 44.2695 59.3101 43.9892 59.6907 43.4355C60.9304 41.6319 61.5054 39.3391 61.258 37.1648C61.1704 36.3953 60.9523 35.92 60.837 35.2202Z" fill="#1A1A1A"/>
<path d="M51.1482 47.6301C51.1764 47.8838 51.1399 47.9878 51.3388 48.146C51.3599 48.1627 51.3814 48.1789 51.4032 48.1946C51.3246 48.5199 51.2827 48.7291 51.2408 49.0608L51.2477 48.9281L51.1599 48.9052C51.1961 48.8713 51.1937 48.7865 51.2018 48.7243C51.1545 48.8522 51.1823 48.8346 51.0857 48.9037L50.9531 48.7913C51.0093 48.4111 51.084 48.011 51.1482 47.6301Z" fill="#121212" fill-opacity="0.027451"/>
<path d="M53.6032 45.4138C54.0089 45.4262 54.3128 45.4781 54.7147 45.5426C54.102 45.6136 53.6612 45.7725 53.1997 45.833C53.4381 45.5571 53.5057 45.7304 53.6593 45.5325L53.6032 45.4138Z" fill="#121212" fill-opacity="0.941176"/>
<path d="M51.3992 28.3058C53.0147 28.2229 56.1549 29.4414 57.2393 30.639C57.08 30.6347 56.4306 30.2108 56.1782 30.086C55.7326 29.8679 55.2692 29.6883 54.7928 29.5491C54.2298 29.3834 53.6367 29.3136 53.0542 29.2656C50.4895 29.0544 49.0455 29.7903 46.9024 30.9551C46.3435 30.6597 45.7572 30.3745 45.1697 30.1381C44.9088 30.0331 44.6596 30.077 44.376 30.0363C44.2476 29.9253 44.2811 29.9816 44.2539 29.7981C44.2755 29.7413 44.3365 29.6237 44.3838 29.5949C45.5244 28.9002 47.3384 28.2646 48.6193 28.3159C49.0196 28.3293 51.0657 28.3485 51.3992 28.3058Z" fill="#202020"/>
<path d="M48.7041 28H51.3373L51.399 28.3059C51.0655 28.3486 49.0194 28.3294 48.6191 28.3161L48.7041 28Z" fill="#121212" fill-opacity="0.701961"/>
</g>
<defs>
<clipPath id="clip0_39515_9711">
<rect width="123.938" height="24" fill="white" transform="translate(38.0312 28)"/>
</clipPath>
</defs>
</svg>
