<svg width="200" height="80" viewBox="0 0 200 80" fill="none" xmlns="http://www.w3.org/2000/svg">
<g clip-path="url(#clip0_39515_9719)">
<path d="M141.908 36.05L142.539 32.3338L150 38.54H145.275L143.452 49.25H139.663L141.481 38.54H139.318L137.639 36.0512H141.906L141.908 36.05ZM50.4638 30H67.4163L66.9538 32.8H60.3125L57.5563 49.25H53.825L56.5825 32.8H50L50.4638 30ZM70.5925 35.8713C75.4575 35.8713 76.4487 39.4412 75.9637 42.3662C75.8587 42.9937 75.7138 43.4987 75.5938 43.785H65.585C65.2825 46.2075 67.2087 47.2638 69.63 47.2638C71.3675 47.2638 73.4187 46.5875 75.0312 45.3788L74.5187 48.4325C72.8687 49.3925 70.8387 49.82 68.6663 49.82C63.8087 49.82 61.4075 46.8237 62.085 42.73C62.6975 39.045 65.7788 35.8713 70.5925 35.8713ZM72.555 41.4313C72.7775 40.1938 72.51 38.1762 69.975 38.1762C67.645 38.1762 66.3638 40.0638 65.9688 41.4313H72.5562H72.555ZM87.3187 35.8713C89.9275 35.8713 92.4088 37.3713 91.7063 41.5963L90.375 49.53H86.5875L87.855 41.9925C88.1712 40.0763 87.61 38.6175 85.5425 38.6175C84.0375 38.6175 82.8512 39.5675 82.285 40.5975C82.1225 40.875 81.9975 41.285 81.9338 41.67L80.6162 49.53H76.83L78.3862 40.1437C78.6425 38.6012 78.8062 37.03 78.9287 35.8713L82.2638 37.9338H82.3512C83.1862 36.8988 84.9562 35.8713 87.32 35.8713H87.3187ZM132.751 35.8713C135.36 35.8713 137.839 37.3713 137.139 41.5963L135.808 49.53H132.02L133.285 41.9925C133.603 40.0763 133.041 38.6175 130.973 38.6175C129.467 38.6175 128.281 39.5675 127.715 40.5975C127.552 40.875 127.427 41.285 127.365 41.67L126.046 49.53H122.263L123.818 40.1437C124.074 38.6012 124.239 37.03 124.361 35.8713L127.695 37.9338H127.783C128.619 36.8988 130.388 35.8713 132.753 35.8713H132.751ZM116.025 35.8713C120.889 35.8713 121.88 39.4412 121.396 42.3662C121.291 42.9937 121.146 43.4987 121.027 43.785H111.017C110.717 46.2075 112.641 47.2638 115.061 47.2638C116.801 47.2638 118.853 46.5875 120.464 45.3788L119.951 48.4325C118.301 49.3925 116.27 49.82 114.099 49.82C109.241 49.82 106.84 46.8237 107.518 42.73C108.13 39.045 111.211 35.8713 116.025 35.8713ZM117.988 41.4313C118.21 40.1938 117.941 38.1762 115.405 38.1762C113.078 38.1762 111.797 40.0638 111.401 41.4313H117.989H117.988ZM93.2962 42.6713C93.96 38.6725 97.73 35.8787 102.994 35.8787C104.925 35.8787 106.229 36.3463 107.042 36.6738L106.455 40.305C105.45 38.9188 103.855 38.5075 102.68 38.5075C99.7925 38.5075 97.5788 40.3888 97.1838 42.8375C96.73 45.575 98.6813 47.1475 101.259 47.1475C102.524 47.1475 104.309 46.8388 105.624 45.3575L105.011 48.9275C104.167 49.2563 101.94 49.8175 100.074 49.8175C95.3825 49.8175 92.6113 46.8175 93.2962 42.6713Z" fill="black"/>
</g>
<defs>
<clipPath id="clip0_39515_9719">
<rect width="200" height="80" fill="white"/>
</clipPath>
</defs>
</svg>
