<svg width="200" height="80" viewBox="0 0 200 80" fill="none" xmlns="http://www.w3.org/2000/svg">
<path d="M67.9038 33.4038H61.475H59.0723V35.8079V46.5963H61.475V35.8079H67.9038V33.4038Z" fill="black"/>
<path d="M81.7896 35.0495C79.1206 32.4025 74.5566 32.4025 71.8891 35.0495C69.242 37.7184 69.242 42.2824 71.8891 44.95C73.2229 46.2728 75.0314 46.9356 76.84 46.9356C78.7927 46.9356 80.7453 46.2742 82.1861 44.95C82.5964 44.5672 82.945 44.1431 83.2359 43.6917L81.076 42.4443C80.8839 42.7435 80.6534 43.0234 80.3817 43.2786C79.4266 44.1555 78.134 44.5932 76.8414 44.5932C75.6434 44.5932 74.4455 44.1555 73.5618 43.2786C72.9498 42.6625 72.5573 41.8913 72.3721 41.0762H83.6901C84.0057 38.9301 83.3786 36.6495 81.7909 35.0495H81.7896ZM72.3707 38.9246C72.556 38.1095 72.9484 37.3383 73.5604 36.7222C75.3278 34.9685 78.3508 34.9699 80.1182 36.7222C80.7302 37.3397 81.1254 38.1095 81.3079 38.9246H72.3707Z" fill="black"/>
<path d="M97.2366 33.4053V35.0121C97.2366 35.0121 96.475 33.9939 94.9642 33.4437C94.2548 33.1994 93.4959 33.0649 92.7042 33.0649C88.8743 33.0649 85.769 36.1703 85.769 40.0001C85.769 43.83 88.8743 46.9353 92.7042 46.9353C93.4959 46.9353 94.2562 46.8008 94.9642 46.5566C96.475 46.0077 97.2366 44.9881 97.2366 44.9881V46.595H99.6393V33.4053H97.2366ZM92.7042 44.5943C90.167 44.5943 88.11 42.5374 88.11 40.0001C88.11 37.4629 90.167 35.4059 92.7042 35.4059C95.2414 35.4059 97.2983 37.4629 97.2983 40.0001C97.2983 42.5374 95.2414 44.5943 92.7042 44.5943Z" fill="black"/>
<path d="M104.042 31.2056H101.64V48.7946H104.042V31.2056Z" fill="black"/>
<path d="M124.616 36.3205C123.846 34.4968 122.15 33.2344 120.004 33.2344C118.182 33.2344 116.626 34.1469 115.698 35.5369C114.916 34.1455 113.549 33.2344 111.726 33.2344C110.329 33.2344 109.225 33.8189 108.445 34.7424V33.5747H106.042V46.7658H108.445V38.8221C108.445 38.2114 108.527 37.7339 108.677 37.3799C109.125 36.3192 110.175 35.5754 111.398 35.5754C112.62 35.5754 113.671 36.3192 114.119 37.3799C114.268 37.7339 114.351 38.2114 114.351 38.8221V46.7658H116.753V38.8221C116.753 38.2114 116.836 37.7339 116.985 37.3799C117.434 36.3192 118.484 35.5754 119.706 35.5754C120.929 35.5754 121.98 36.3192 122.428 37.3799C122.577 37.7339 122.659 38.2114 122.659 38.8221V46.7658H125.062V39.1994C125.062 38.0317 124.904 37.0107 124.613 36.3205H124.616Z" fill="black"/>
<path d="M138.948 35.0495C136.279 32.4025 131.715 32.4025 129.048 35.0495C126.401 37.7184 126.401 42.2824 129.048 44.95C130.382 46.2728 132.19 46.9356 133.999 46.9356C135.951 46.9356 137.904 46.2742 139.345 44.95C139.755 44.5672 140.104 44.1431 140.395 43.6917L138.235 42.4443C138.043 42.7435 137.812 43.0234 137.54 43.2786C136.585 44.1555 135.293 44.5932 134 44.5932C132.802 44.5932 131.604 44.1555 130.72 43.2786C130.108 42.6625 129.716 41.8913 129.531 41.0762H140.849C141.164 38.9301 140.537 36.6495 138.95 35.0495H138.948ZM129.529 38.9246C129.715 38.1095 130.107 37.3383 130.719 36.7222C132.487 34.9685 135.51 34.9699 137.277 36.7222C137.889 37.3397 138.284 38.1095 138.467 38.9246H129.529Z" fill="black"/>
</svg>
